<svg width="250" height="250" viewBox="0 0 250 250" fill="none" xmlns="http://www.w3.org/2000/svg">
<path d="M150.786 115.923L167.604 87.3871L212.934 157.99L212.955 171.539L212.807 78.3019C212.7 76.0228 211.49 73.9377 209.559 72.7083L127.948 25.7646C126.039 24.8265 123.618 24.8365 121.713 25.7938C121.455 25.9231 121.213 26.0631 120.982 26.2159L120.698 26.395L41.4815 72.3004L41.1738 72.4397C40.7786 72.6216 40.3793 72.8526 40.004 73.1212C38.5024 74.1986 37.5046 75.7912 37.182 77.5778C37.1337 77.8485 37.0981 78.1243 37.0811 78.4021L37.2054 154.381L79.4282 88.9385C84.7439 80.2605 96.3263 77.4655 107.078 77.6176L119.697 77.9509L45.3447 197.191L54.1093 202.238L129.353 78.0717L162.611 77.9509L87.561 205.25L118.836 223.238L122.573 225.388C124.153 226.03 126.016 226.062 127.611 225.487L210.368 177.528L194.546 186.696L150.786 115.923ZM157.203 208.337L125.614 158.76L144.897 126.039L186.382 191.427L157.203 208.337Z" fill="#2D374B"/>
<path d="M125.613 158.763L157.202 208.341L186.382 191.431L144.896 126.043L125.613 158.763Z" fill="#28A0F0"/>
<path d="M212.956 171.541L212.935 157.992L167.605 87.3887L150.787 115.925L194.547 186.698L210.369 177.529C211.921 176.269 212.86 174.42 212.959 172.423L212.956 171.541Z" fill="#28A0F0"/>
<path d="M23.0007 184.32L45.344 197.195L119.697 77.9544L107.077 77.6211C96.3257 77.469 84.744 80.264 79.4275 88.942L37.2048 154.385L23 176.21V184.32H23.0007Z" fill="white"/>
<path d="M162.61 77.9531L129.353 78.0739L54.1094 202.24L80.409 217.383L87.5611 205.252L162.61 77.9531Z" fill="white"/>
<path d="M226.97 77.7822C226.692 70.827 222.927 64.4594 217.027 60.7526L134.347 13.2055C128.512 10.267 121.222 10.2634 115.377 13.2034C114.687 13.5516 34.9721 59.7832 34.9721 59.7832C33.8692 60.312 32.8067 60.9423 31.8068 61.6573C26.5408 65.4316 23.3307 71.296 23.001 77.7396V176.21L37.2057 154.385L37.0814 78.4055C37.0984 78.1276 37.1333 77.8547 37.1823 77.5847C37.5028 75.7966 38.5013 74.2019 40.0043 73.1245C40.3796 72.8559 121.455 25.9264 121.713 25.7971C123.619 24.8398 126.04 24.8299 127.948 25.768L209.559 72.7116C211.49 73.9411 212.7 76.0262 212.807 78.3053V172.425C212.709 174.421 211.92 176.27 210.368 177.531L194.546 186.699L186.382 191.43L157.202 208.341L127.61 225.49C126.016 226.066 124.153 226.034 122.572 225.391L87.5606 205.253L80.4085 217.383L111.872 235.499C112.913 236.09 113.84 236.614 114.601 237.042C115.779 237.703 116.581 238.144 116.865 238.282C119.101 239.368 122.319 240 125.218 240C127.877 240 130.468 239.512 132.922 238.551L218.873 188.774C223.806 184.952 226.709 179.188 226.97 172.943V77.7822V77.7822Z" fill="#96BEDC"/>
</svg>
