<svg width="800" height="800" viewBox="0 0 800 800" fill="none" xmlns="http://www.w3.org/2000/svg">
<rect width="800" height="800" fill="white"/>
<path d="M360.663 318.367L343.87 335.159L327.077 318.367L343.87 301.574L360.663 318.367ZM401.444 277.585L430.232 306.372L447.024 289.579L401.444 244L355.865 289.579L372.657 306.372L401.444 277.585ZM459.019 301.574L442.226 318.367L459.019 335.159L475.81 318.367L459.019 301.574ZM401.444 359.148L372.657 330.361L355.865 347.154L401.444 392.733L447.024 347.154L430.232 330.361L401.444 359.148ZM401.444 335.159L418.237 318.367L401.444 301.574L384.652 318.367L401.444 335.159ZM233.828 473.724V473.537C233.828 464.771 229.166 460.389 221.613 457.498C226.275 454.887 230.192 450.784 230.192 443.417V443.231C230.192 432.973 221.986 426.353 208.651 426.353H178.345V491.628H209.397C224.13 491.628 233.828 485.66 233.828 473.724ZM215.924 445.842C215.924 450.691 211.914 452.742 205.574 452.742H192.332V438.941H206.506C212.567 438.941 215.924 441.366 215.924 445.656V445.842ZM219.561 471.952C219.561 476.801 215.738 479.039 209.397 479.039H192.332V464.679H208.93C216.297 464.679 219.561 467.383 219.561 471.765V471.952ZM263.943 491.628V426.353H249.582V491.628H263.943ZM341.137 491.628V426.353H326.963V466.544L296.377 426.353H283.136V491.628H297.31V450.131L328.923 491.628H341.137ZM420.685 491.628L392.709 425.887H379.469L351.493 491.628H366.134L372.102 476.988H399.703L405.671 491.628H420.685ZM394.574 464.305H377.231L385.902 443.137L394.574 464.305ZM489.136 491.628V426.353H474.961V466.544L444.375 426.353H431.134V491.628H445.307V450.131L476.92 491.628H489.136ZM563.274 481.091L554.136 471.859C549.007 476.522 544.438 479.506 536.978 479.506C525.787 479.506 518.047 470.181 518.047 458.99V458.804C518.047 447.613 525.974 438.475 536.978 438.475C543.505 438.475 548.634 441.272 553.67 445.842L562.808 435.304C556.747 429.336 549.379 425.234 537.071 425.234C517.021 425.234 503.034 440.433 503.034 458.99V459.176C503.034 477.92 517.302 492.747 536.511 492.747C549.1 492.747 556.56 488.272 563.274 481.091ZM624.543 491.628V478.853H589.109V465.145H619.882V452.369H589.109V439.128H624.078V426.353H574.842V491.628H624.543Z" fill="#F0B90B"/>
<path d="M184.833 523.152C184.833 520.233 187.441 517.936 191.912 517.936C195.886 517.936 199.798 519.489 203.71 522.407L207.808 516.632C203.399 513.093 198.37 511.168 192.036 511.168C183.405 511.168 177.195 516.259 177.195 523.835C177.195 531.908 182.411 534.64 191.664 536.875C199.736 538.738 201.474 540.415 201.474 543.581C201.474 546.934 198.494 549.107 193.775 549.107C188.373 549.107 184.212 547.059 180.052 543.457L175.457 548.921C180.673 553.579 186.944 555.876 193.589 555.876C202.716 555.876 209.112 551.033 209.112 542.836C209.112 535.571 204.331 532.28 195.141 530.045C186.82 528.058 184.833 526.567 184.833 523.152Z" fill="#F0B90B"/>
<path d="M253.177 524.084V555.255H260.815V511.789H252.68L239.454 532.342L226.228 511.789H218.094V555.255H225.607V524.207L239.206 544.574H239.454L253.177 524.084Z" fill="#F0B90B"/>
<path d="M294.48 511.478H287.402L268.277 555.255H276.101L280.571 544.761H301.124L305.534 555.255H313.606L294.48 511.478ZM298.331 537.993H283.366L290.817 520.606L298.331 537.993Z" fill="#F0B90B"/>
<path d="M357.944 555.255L346.208 538.8C352.293 537.124 356.577 532.777 356.577 525.574C356.577 517.067 350.43 511.789 340.433 511.789H321.059V555.255H328.697V540.104H338.26L348.94 555.255H357.944ZM348.816 526.008C348.816 530.48 345.339 533.336 339.874 533.336H328.697V518.744H339.812C345.463 518.744 348.816 521.227 348.816 526.008Z" fill="#F0B90B"/>
<path d="M384.131 518.868H397.916V511.789H362.646V518.868H376.431V555.255H384.131V518.868Z" fill="#F0B90B"/>
<path d="M462.448 548.301L457.542 543.333C453.817 546.81 450.402 548.984 445.061 548.984C436.74 548.984 430.718 542.028 430.718 533.46C430.718 524.89 436.74 518.06 445.061 518.06C450.029 518.06 453.755 520.233 457.232 523.462L462.138 517.812C457.978 513.838 453.133 511.043 445.124 511.043C431.96 511.043 422.707 521.165 422.707 533.584C422.707 546.127 432.146 556 444.812 556C452.947 556 457.915 553.019 462.448 548.301Z" fill="#F0B90B"/>
<path d="M498.852 536.937V555.255H506.489V511.789H498.852V529.858H478.113V511.789H470.475V555.255H478.113V536.937H498.852Z" fill="#F0B90B"/>
<path d="M540.132 511.478H533.053L513.927 555.255H521.752L526.222 544.761H546.776L551.184 555.255H559.257L540.132 511.478ZM543.981 537.993H529.016L536.468 520.606L543.981 537.993Z" fill="#F0B90B"/>
<path d="M567.145 511.789V555.255H574.783V511.789H567.145Z" fill="#F0B90B"/>
<path d="M616.782 541.843L593.496 511.789H586.417V555.255H593.931V524.332L617.9 555.255H624.296V511.789H616.782V541.843Z" fill="#F0B90B"/>
</svg>
