<svg width="800" height="800" viewBox="0 0 800 800" fill="none" xmlns="http://www.w3.org/2000/svg">
<rect width="800" height="800" fill="white"/>
<g clip-path="url(#clip0_2232_72)">
<path d="M134.694 393.272C138.342 393.272 141.3 390.311 141.3 386.659C141.3 383.006 138.342 380.046 134.694 380.046C131.045 380.046 128.087 383.006 128.087 386.659C128.087 390.311 131.045 393.272 134.694 393.272Z" fill="#E1372D"/>
<path d="M116.212 439.056C119.861 439.056 122.818 436.095 122.818 432.443C122.818 428.791 119.861 425.83 116.212 425.83C112.564 425.83 109.606 428.791 109.606 432.443C109.606 436.095 112.564 439.056 116.212 439.056Z" fill="#E1372D"/>
<path d="M148.928 346.917C152.577 346.917 155.535 343.956 155.535 340.304C155.535 336.651 152.577 333.691 148.928 333.691C145.28 333.691 142.322 336.651 142.322 340.304C142.322 343.956 145.28 346.917 148.928 346.917Z" fill="#E1372D"/>
<path d="M174.269 367.692C177.917 367.692 180.875 364.731 180.875 361.079C180.875 357.427 177.917 354.466 174.269 354.466C170.62 354.466 167.663 357.427 167.663 361.079C167.663 364.731 170.62 367.692 174.269 367.692Z" fill="#E1372D"/>
<path d="M200.428 350.145C204.077 350.145 207.034 347.185 207.034 343.532C207.034 339.88 204.077 336.919 200.428 336.919C196.779 336.919 193.822 339.88 193.822 343.532C193.822 347.185 196.779 350.145 200.428 350.145Z" fill="#E1372D"/>
<path d="M218.097 363.372C221.746 363.372 224.703 360.411 224.703 356.759C224.703 353.106 221.746 350.146 218.097 350.146C214.448 350.146 211.491 353.106 211.491 356.759C211.491 360.411 214.448 363.372 218.097 363.372Z" fill="#E1372D"/>
<path d="M199.066 434.676C202.714 434.676 205.672 431.715 205.672 428.063C205.672 424.411 202.714 421.45 199.066 421.45C195.417 421.45 192.459 424.411 192.459 428.063C192.459 431.715 195.417 434.676 199.066 434.676Z" fill="#E1372D"/>
<path d="M194.278 466.046C197.927 466.046 200.884 463.085 200.884 459.433C200.884 455.781 197.927 452.82 194.278 452.82C190.63 452.82 187.672 455.781 187.672 459.433C187.672 463.085 190.63 466.046 194.278 466.046Z" fill="#E1372D"/>
<path d="M167.659 470.601C171.308 470.601 174.266 467.64 174.266 463.988C174.266 460.335 171.308 457.375 167.659 457.375C164.011 457.375 161.053 460.335 161.053 463.988C161.053 467.64 164.011 470.601 167.659 470.601Z" fill="#E1372D"/>
<path d="M149.715 439.012C153.364 439.012 156.322 436.051 156.322 432.399C156.322 428.747 153.364 425.786 149.715 425.786C146.067 425.786 143.109 428.747 143.109 432.399C143.109 436.051 146.067 439.012 149.715 439.012Z" fill="#E1372D"/>
<path d="M113.75 389.502C119.011 389.502 123.275 385.233 123.275 379.967C123.275 374.701 119.011 370.432 113.75 370.432C108.49 370.432 104.225 374.701 104.225 379.967C104.225 385.233 108.49 389.502 113.75 389.502Z" fill="#E1372D"/>
<path d="M130.513 422.865C135.773 422.865 140.038 418.596 140.038 413.33C140.038 408.064 135.773 403.795 130.513 403.795C125.252 403.795 120.988 408.064 120.988 413.33C120.988 418.596 125.252 422.865 130.513 422.865Z" fill="#E1372D"/>
<path d="M173.787 348.469C179.048 348.469 183.312 344.2 183.312 338.934C183.312 333.668 179.048 329.399 173.787 329.399C168.527 329.399 164.262 333.668 164.262 338.934C164.262 344.2 168.527 348.469 173.787 348.469Z" fill="#E1372D"/>
<path d="M149.384 373.307C154.645 373.307 158.909 369.038 158.909 363.772C158.909 358.506 154.645 354.237 149.384 354.237C144.124 354.237 139.859 358.506 139.859 363.772C139.859 369.038 144.124 373.307 149.384 373.307Z" fill="#E1372D"/>
<path d="M199.066 377.227C204.326 377.227 208.591 372.958 208.591 367.692C208.591 362.426 204.326 358.157 199.066 358.157C193.805 358.157 189.541 362.426 189.541 367.692C189.541 372.958 193.805 377.227 199.066 377.227Z" fill="#E1372D"/>
<path d="M137.244 460.547C142.504 460.547 146.769 456.278 146.769 451.012C146.769 445.746 142.504 441.477 137.244 441.477C131.983 441.477 127.719 445.746 127.719 451.012C127.719 456.278 131.983 460.547 137.244 460.547Z" fill="#E1372D"/>
<path d="M174.725 451.925C179.986 451.925 184.25 447.656 184.25 442.39C184.25 437.124 179.986 432.855 174.725 432.855C169.465 432.855 165.2 437.124 165.2 442.39C165.2 447.656 169.465 451.925 174.725 451.925Z" fill="#E1372D"/>
<path d="M216.103 452.047C220.311 452.047 223.722 448.632 223.722 444.42C223.722 440.208 220.311 436.794 216.103 436.794C211.895 436.794 208.484 440.208 208.484 444.42C208.484 448.632 211.895 452.047 216.103 452.047Z" fill="#E1372D"/>
<path d="M108.312 414.571C112.52 414.571 115.931 411.157 115.931 406.945C115.931 402.733 112.52 399.318 108.312 399.318C104.105 399.318 100.694 402.733 100.694 406.945C100.694 411.157 104.105 414.571 108.312 414.571Z" fill="#E1372D"/>
<path d="M129.087 360.772C133.295 360.772 136.706 357.358 136.706 353.146C136.706 348.934 133.295 345.519 129.087 345.519C124.88 345.519 121.469 348.934 121.469 353.146C121.469 357.358 124.88 360.772 129.087 360.772Z" fill="#E1372D"/>
<path d="M199.753 429.234L198.378 426.891L174.216 441.115L140.281 448.92L150.844 433.157L148.591 431.642L137.987 447.462L131.953 413.671L131.459 412.188L116.416 382.245L134.281 387.954L135.106 385.364L117.522 379.745L150.175 364.905L172.5 342.182L172.909 361.107L175.625 361.048L175.225 342.626L198.778 369.422L218.772 357.938L217.419 355.583L199.35 365.962L177.347 340.927L200.197 344.872L200.659 342.194L174.491 337.677L173.319 337.474L172.419 338.39L150.678 360.516L150.284 340.28L147.569 340.333L148.009 362.906L117.016 376.992L130.266 353.822L127.909 352.473L112.791 378.913L111.903 379.317L127.906 411.165L108.687 405.641L107.938 408.253L128.247 414.09L115.125 431.627L117.297 433.257L129.728 416.646L135.809 450.712L136.034 451.973L137.116 452.436L167.128 465.236L168.194 462.737L141.616 451.4L174.353 443.871L193.387 460.46L195.169 458.411L178.569 443.94L216.037 445.779L216.169 443.064L179.331 441.256L199.753 429.234Z" fill="#E1372D"/>
<path d="M272.475 374.615C277.025 374.615 281.991 375.453 285.487 377.136L284.719 386.239C281.709 384.209 277.722 383.299 273.734 383.299C263.45 383.299 257.644 390.021 257.644 399.966C257.644 410.47 263.8 416.702 273.944 416.702C278.006 416.702 281.781 415.723 285 413.483L285.837 422.796C281.85 424.673 277.025 425.386 272.756 425.386C256.734 425.386 246.591 415.303 246.591 399.966C246.591 384.978 256.666 374.615 272.475 374.615Z" fill="black"/>
<path d="M325.397 413.552H307.766L304.328 424.475H292.725L309.797 375.443H323.369L340.438 424.475H328.825L325.397 413.552ZM310.425 405.008H322.738L316.581 385.188L310.425 405.008Z" fill="black"/>
<path d="M366.009 374.615C370.837 374.615 375.662 375.453 379.65 377.064L378.881 385.889C374.894 384.209 370.628 383.299 366.778 383.299C361.112 383.299 358.875 385.26 358.875 387.991C358.875 391 360.831 393.102 367.547 395.342C377.831 398.783 382.234 403.326 382.234 410.821C382.234 419.993 376.006 425.317 363.275 425.317C357.962 425.317 352.291 424.197 348.025 422.026L348.862 412.432C352.781 415.163 357.747 416.633 362.925 416.633C367.891 416.633 371.181 414.953 371.181 411.315C371.181 407.874 369.15 405.997 361.806 403.613C352.228 400.595 347.812 395.777 347.812 388.41C347.812 379.867 354.325 374.615 366.009 374.615Z" fill="black"/>
<path d="M409.178 407.598H403.163V424.491H392.247V375.443H409.178C421.35 375.443 428.838 380.908 428.838 391.482C428.838 402.055 421.35 407.598 409.178 407.598ZM408.2 383.718H403.163V399.334H408.2C414.763 399.334 417.785 397.094 417.785 391.491C417.785 385.889 414.775 383.718 408.2 383.718Z" fill="black"/>
<path d="M438.006 375.443H471.25V383.99H448.931V395.054H469.64V403.597H448.931V415.923H471.875V424.466H438.006V375.443Z" fill="black"/>
<path d="M510.903 404.308L524.403 424.475H512.528L500.625 405.987H494.687V424.475H483.75V375.443H501.45C512.503 375.443 520.756 380.417 520.756 390.503C520.766 397.094 516.991 401.927 510.903 404.308ZM500.759 383.718H494.687V397.723H500.775C506.441 397.723 509.728 395.273 509.728 390.512C509.728 385.751 506.425 383.718 500.759 383.718Z" fill="black"/>
<path d="M534.478 375.443H538.956V420.552H566.1V424.475H534.478V375.443Z" fill="black"/>
<path d="M605.906 411.105H582.259L577.084 424.482H572.188L591.563 375.443H596.6L615.975 424.466H611.078L605.906 411.105ZM583.8 407.186H604.375L594.091 380.433L583.8 407.186Z" fill="black"/>
<path d="M625.431 375.443H641.591C643.842 375.408 646.084 375.725 648.238 376.382C650.053 376.936 651.749 377.827 653.238 379.006C654.582 380.089 655.66 381.466 656.388 383.032C657.121 384.649 657.491 386.406 657.472 388.181C657.472 390.797 656.907 392.979 655.778 394.729C654.588 396.533 652.862 397.917 650.844 398.686C653.869 399.62 656.138 401.126 657.65 403.203C659.163 405.28 659.919 407.813 659.919 410.802C659.919 415.098 658.395 418.447 655.347 420.849C652.299 423.252 647.913 424.46 642.188 424.475H625.435L625.431 375.443ZM652.853 388.269C652.853 385.47 651.839 383.288 649.81 381.722C647.78 380.155 644.877 379.373 641.1 379.376H629.906V397.094H640.625C644.825 397.094 647.916 396.428 649.897 395.098C651.878 393.767 652.864 391.491 652.853 388.269ZM655.303 410.82C655.303 407.275 654.114 404.754 651.735 403.256C649.355 401.759 645.788 401.012 641.031 401.017H629.906V420.552H641.731C650.786 420.552 655.313 417.308 655.313 410.82H655.303Z" fill="black"/>
<path d="M696.019 380.986C694.365 380.17 692.613 379.57 690.806 379.2C688.953 378.84 687.069 378.664 685.181 378.675C681.356 378.675 678.429 379.398 676.4 380.846C674.371 382.293 673.356 384.207 673.356 386.589C673.344 387.689 673.56 388.779 673.991 389.792C674.421 390.804 675.056 391.716 675.856 392.47C677.512 394.105 680.276 395.576 684.147 396.884C686.499 397.651 688.791 398.592 691.003 399.699C692.726 400.551 694.316 401.647 695.725 402.956C696.917 404.084 697.848 405.459 698.453 406.985C699.058 408.595 699.354 410.305 699.328 412.025C699.328 416.135 697.847 419.38 694.884 421.76C691.922 424.139 687.712 425.33 682.256 425.332C679.922 425.331 677.597 425.049 675.331 424.491C673.2 423.991 671.151 423.189 669.247 422.11L669.597 417.418C671.525 418.666 673.621 419.632 675.822 420.289C677.978 420.939 680.217 421.27 682.469 421.272C686.573 421.272 689.639 420.454 691.669 418.819C693.698 417.184 694.711 414.966 694.709 412.165C694.728 410.958 694.516 409.758 694.084 408.63C693.617 407.511 692.912 406.506 692.019 405.687C690.899 404.667 689.635 403.818 688.269 403.165C686.439 402.288 684.544 401.556 682.6 400.976C677.798 399.437 674.288 397.569 672.072 395.373C669.855 393.177 668.748 390.272 668.75 386.658C668.728 384.928 669.137 383.219 669.94 381.687C670.743 380.178 671.879 378.873 673.262 377.871C674.824 376.751 676.578 375.928 678.437 375.443C680.664 374.859 682.958 374.577 685.259 374.605C687.265 374.592 689.269 374.746 691.25 375.068C692.997 375.366 694.709 375.847 696.356 376.504L696.019 380.986Z" fill="black"/>
</g>
<defs>
<clipPath id="clip0_2232_72">
<rect width="600" height="141.709" fill="white" transform="translate(100 329.146)"/>
</clipPath>
</defs>
</svg>
