<svg width="800" height="800" viewBox="0 0 800 800" fill="none" xmlns="http://www.w3.org/2000/svg">
<rect width="800" height="800" fill="white"/>
<g clip-path="url(#clip0_2232_105)">
<path fill-rule="evenodd" clip-rule="evenodd" d="M243.509 346.027C243.187 345.719 242.929 345.35 242.751 344.941C242.572 344.532 242.477 344.092 242.47 343.646C242.473 343.199 242.567 342.757 242.745 342.348C242.924 341.939 243.184 341.57 243.509 341.264C244.199 340.633 245.1 340.284 246.034 340.284C246.968 340.284 247.869 340.633 248.559 341.264C248.895 341.563 249.165 341.93 249.35 342.34C249.535 342.751 249.632 343.195 249.633 343.646C249.628 344.095 249.53 344.539 249.345 344.949C249.16 345.359 248.893 345.726 248.559 346.027C247.865 346.65 246.966 346.995 246.034 346.995C245.102 346.995 244.203 346.65 243.509 346.027Z" fill="#0B0229"/>
<path fill-rule="evenodd" clip-rule="evenodd" d="M234.502 355.429C233.889 354.785 233.538 353.936 233.517 353.047C233.516 352.381 233.714 351.73 234.083 351.175C234.453 350.621 234.979 350.19 235.595 349.935C236.21 349.68 236.887 349.613 237.541 349.743C238.194 349.873 238.794 350.194 239.265 350.665C239.882 351.305 240.228 352.158 240.232 353.047C240.216 353.933 239.871 354.782 239.265 355.429C238.626 356.047 237.772 356.393 236.883 356.396C235.993 356.401 235.136 356.053 234.502 355.429Z" fill="#0B0229"/>
<path fill-rule="evenodd" clip-rule="evenodd" d="M224.653 364.794C224.341 364.484 224.093 364.116 223.924 363.71C223.755 363.305 223.668 362.87 223.668 362.43C223.668 361.991 223.755 361.556 223.924 361.15C224.093 360.744 224.341 360.376 224.653 360.066C225.286 359.439 226.142 359.087 227.034 359.087C227.926 359.087 228.782 359.439 229.416 360.066C230.037 360.696 230.385 361.546 230.385 362.43C230.385 363.315 230.037 364.164 229.416 364.794C229.106 365.111 228.735 365.364 228.326 365.536C227.917 365.708 227.478 365.797 227.034 365.797C226.59 365.801 226.149 365.714 225.74 365.542C225.33 365.369 224.96 365.115 224.653 364.794Z" fill="#0B0229"/>
<path fill-rule="evenodd" clip-rule="evenodd" d="M215.305 374.231C214.976 373.928 214.714 373.56 214.535 373.15C214.355 372.74 214.262 372.297 214.262 371.85C214.262 371.402 214.355 370.96 214.535 370.55C214.714 370.14 214.976 369.772 215.305 369.468C216.003 368.839 216.909 368.491 217.848 368.491C218.787 368.491 219.693 368.839 220.391 369.468C220.72 369.772 220.982 370.14 221.162 370.55C221.341 370.96 221.434 371.402 221.434 371.85C221.434 372.297 221.341 372.74 221.162 373.15C220.982 373.56 220.72 373.928 220.391 374.231C219.698 374.868 218.788 375.214 217.848 375.198C216.909 375.207 216.002 374.861 215.305 374.231Z" fill="#0B0229"/>
<path fill-rule="evenodd" clip-rule="evenodd" d="M206.316 383.633C205.998 383.323 205.746 382.952 205.574 382.543C205.402 382.134 205.313 381.695 205.313 381.251C205.334 380.599 205.543 379.967 205.915 379.431C206.287 378.895 206.806 378.477 207.41 378.23C208.014 377.982 208.676 377.914 209.318 378.033C209.959 378.153 210.552 378.456 211.025 378.905C211.337 379.211 211.583 379.576 211.749 379.979C211.916 380.382 211.998 380.815 211.992 381.251C211.994 381.914 211.8 382.562 211.433 383.114C211.066 383.666 210.544 384.097 209.932 384.352C209.321 384.607 208.647 384.675 207.997 384.547C207.347 384.419 206.749 384.101 206.28 383.633" fill="#0B0229"/>
<path fill-rule="evenodd" clip-rule="evenodd" d="M195.464 390.652C195.472 389.757 195.832 388.902 196.467 388.271C197.109 387.695 197.947 387.388 198.809 387.413C199.671 387.437 200.49 387.791 201.099 388.402C201.707 389.013 202.058 389.833 202.079 390.695C202.1 391.557 201.79 392.394 201.212 393.034C200.577 393.652 199.726 393.998 198.84 393.998C197.953 393.998 197.102 393.652 196.467 393.034C196.151 392.723 195.9 392.352 195.728 391.943C195.556 391.534 195.466 391.096 195.464 390.652Z" fill="#0B0229"/>
<path fill-rule="evenodd" clip-rule="evenodd" d="M178.094 411.353C177.777 411.04 177.526 410.666 177.357 410.254C177.188 409.842 177.103 409.399 177.109 408.954C177.111 408.061 177.464 407.205 178.094 406.572C178.566 406.107 179.164 405.791 179.815 405.665C180.465 405.538 181.138 405.606 181.75 405.86C182.362 406.115 182.885 406.544 183.254 407.094C183.623 407.644 183.821 408.291 183.824 408.954C183.824 409.392 183.734 409.826 183.562 410.229C183.39 410.632 183.138 410.996 182.822 411.3C182.519 411.618 182.155 411.871 181.752 412.043C181.349 412.215 180.914 412.304 180.476 412.302C180.031 412.306 179.591 412.22 179.181 412.047C178.772 411.875 178.402 411.62 178.094 411.3" fill="#0B0229"/>
<path fill-rule="evenodd" clip-rule="evenodd" d="M168.299 420.755C167.974 420.456 167.715 420.093 167.536 419.689C167.357 419.286 167.263 418.85 167.26 418.409C167.289 417.537 167.663 416.713 168.299 416.117C168.998 415.477 169.912 415.123 170.859 415.123C171.807 415.123 172.72 415.477 173.42 416.117C173.746 416.422 174.006 416.791 174.184 417.201C174.363 417.61 174.456 418.052 174.459 418.498C174.443 418.924 174.344 419.343 174.165 419.731C173.987 420.118 173.734 420.466 173.42 420.755C172.732 421.402 171.822 421.761 170.877 421.757C169.93 421.772 169.016 421.412 168.334 420.755" fill="#0B0229"/>
<path fill-rule="evenodd" clip-rule="evenodd" d="M159.291 430.192C158.979 429.879 158.731 429.508 158.561 429.099C158.392 428.69 158.305 428.252 158.305 427.81C158.305 427.368 158.392 426.93 158.561 426.521C158.731 426.112 158.979 425.741 159.291 425.428C159.604 425.116 159.976 424.868 160.384 424.698C160.793 424.529 161.231 424.442 161.673 424.442C162.115 424.442 162.553 424.529 162.962 424.698C163.371 424.868 163.742 425.116 164.055 425.428C164.674 426.067 165.02 426.921 165.02 427.81C165.02 428.699 164.674 429.554 164.055 430.192C163.42 430.816 162.564 431.164 161.673 431.159C161.232 431.165 160.793 431.083 160.384 430.917C159.975 430.751 159.603 430.504 159.291 430.192Z" fill="#0B0229"/>
<path fill-rule="evenodd" clip-rule="evenodd" d="M149.908 439.593C149.589 439.28 149.336 438.906 149.164 438.494C148.992 438.082 148.904 437.64 148.905 437.193C148.913 436.531 149.115 435.885 149.487 435.337C149.858 434.788 150.382 434.36 150.994 434.107C151.606 433.853 152.279 433.785 152.929 433.91C153.58 434.035 154.179 434.349 154.654 434.812C155.259 435.458 155.604 436.307 155.62 437.193C155.621 438.088 155.274 438.948 154.654 439.593C154.019 440.218 153.162 440.565 152.272 440.56C151.833 440.564 151.398 440.481 150.992 440.315C150.587 440.149 150.218 439.903 149.908 439.593Z" fill="#0B0229"/>
<path fill-rule="evenodd" clip-rule="evenodd" d="M140.131 448.994C139.793 448.692 139.523 448.322 139.338 447.909C139.152 447.495 139.057 447.047 139.056 446.594C139.061 446.145 139.159 445.701 139.344 445.291C139.529 444.881 139.797 444.514 140.131 444.213C140.824 443.59 141.723 443.245 142.656 443.245C143.588 443.245 144.487 443.59 145.18 444.213C145.505 444.512 145.765 444.874 145.943 445.278C146.122 445.681 146.216 446.117 146.219 446.559C146.225 447.009 146.136 447.456 145.957 447.87C145.778 448.283 145.513 448.654 145.18 448.958C144.487 449.581 143.588 449.926 142.656 449.926C141.723 449.926 140.824 449.581 140.131 448.958" fill="#0B0229"/>
<path fill-rule="evenodd" clip-rule="evenodd" d="M131.088 458.396C130.775 458.083 130.526 457.712 130.357 457.303C130.188 456.894 130.1 456.456 130.1 456.014C130.1 455.571 130.188 455.133 130.357 454.725C130.526 454.316 130.775 453.945 131.088 453.632C131.4 453.322 131.771 453.076 132.179 452.909C132.587 452.742 133.023 452.657 133.464 452.658C133.905 452.66 134.341 452.748 134.747 452.919C135.154 453.089 135.523 453.337 135.833 453.65C136.143 453.963 136.389 454.334 136.556 454.741C136.723 455.149 136.808 455.586 136.807 456.027C136.805 456.467 136.717 456.903 136.547 457.31C136.376 457.716 136.128 458.085 135.815 458.396C135.185 459.017 134.336 459.365 133.451 459.365C132.567 459.365 131.717 459.017 131.088 458.396Z" fill="#0B0229"/>
<path fill-rule="evenodd" clip-rule="evenodd" d="M135.815 346.027C136.433 345.388 136.779 344.535 136.782 343.646C136.784 342.983 136.589 342.335 136.222 341.783C135.855 341.231 135.333 340.8 134.722 340.545C134.11 340.29 133.436 340.222 132.786 340.35C132.136 340.478 131.539 340.796 131.069 341.264C130.752 341.574 130.5 341.945 130.327 342.354C130.155 342.763 130.066 343.202 130.066 343.646C130.074 344.541 130.435 345.396 131.069 346.027C131.704 346.645 132.556 346.991 133.442 346.991C134.328 346.991 135.179 346.645 135.815 346.027Z" fill="#0B0229"/>
<path fill-rule="evenodd" clip-rule="evenodd" d="M145.18 355.429C145.828 354.804 146.202 353.947 146.219 353.047C146.216 352.601 146.123 352.159 145.944 351.75C145.766 351.34 145.506 350.971 145.18 350.666C144.483 350.036 143.577 349.688 142.638 349.688C141.698 349.688 140.792 350.036 140.095 350.666C139.769 350.971 139.509 351.34 139.331 351.75C139.152 352.159 139.059 352.601 139.056 353.047C139.074 353.947 139.447 354.804 140.095 355.429C140.796 356.051 141.7 356.394 142.638 356.394C143.575 356.394 144.479 356.051 145.18 355.429Z" fill="#0B0229"/>
<path fill-rule="evenodd" clip-rule="evenodd" d="M154.653 364.794C155.275 364.164 155.623 363.315 155.623 362.431C155.623 361.546 155.275 360.697 154.653 360.067C154.186 359.599 153.591 359.279 152.942 359.147C152.294 359.015 151.621 359.077 151.008 359.325C150.394 359.574 149.868 359.997 149.494 360.543C149.12 361.089 148.915 361.733 148.905 362.395C148.912 363.276 149.266 364.119 149.89 364.741C150.198 365.061 150.568 365.316 150.977 365.488C151.387 365.661 151.827 365.747 152.272 365.743C152.716 365.743 153.155 365.655 153.564 365.482C153.973 365.31 154.343 365.058 154.653 364.741" fill="#0B0229"/>
<path fill-rule="evenodd" clip-rule="evenodd" d="M164.055 374.232C164.674 373.594 165.02 372.739 165.02 371.85C165.02 370.961 164.674 370.107 164.055 369.468C163.423 368.837 162.566 368.482 161.673 368.482C160.78 368.482 159.923 368.837 159.291 369.468C158.66 370.1 158.305 370.957 158.305 371.85C158.305 372.743 158.66 373.6 159.291 374.232C159.603 374.544 159.975 374.791 160.384 374.957C160.793 375.123 161.232 375.205 161.673 375.199C162.563 375.202 163.419 374.855 164.055 374.232Z" fill="#0B0229"/>
<path fill-rule="evenodd" clip-rule="evenodd" d="M173.42 383.633C173.756 383.334 174.026 382.967 174.211 382.557C174.396 382.146 174.493 381.701 174.495 381.251C174.492 380.806 174.395 380.367 174.21 379.963C174.025 379.558 173.756 379.198 173.42 378.905C172.749 378.238 171.841 377.864 170.895 377.864C169.949 377.864 169.041 378.238 168.37 378.905C168.04 379.2 167.776 379.561 167.597 379.966C167.418 380.37 167.327 380.809 167.332 381.251C167.327 381.699 167.417 382.143 167.596 382.553C167.775 382.964 168.039 383.332 168.37 383.633C169.064 384.256 169.963 384.6 170.895 384.6C171.827 384.6 172.727 384.256 173.42 383.633Z" fill="#0B0229"/>
<path fill-rule="evenodd" clip-rule="evenodd" d="M183.824 390.652C183.816 389.757 183.456 388.902 182.822 388.271C182.512 387.959 182.144 387.711 181.738 387.542C181.332 387.373 180.897 387.287 180.458 387.287C180.018 387.287 179.583 387.373 179.178 387.542C178.772 387.711 178.404 387.959 178.094 388.271C177.781 388.583 177.533 388.955 177.364 389.363C177.194 389.772 177.107 390.21 177.107 390.652C177.107 391.095 177.194 391.533 177.364 391.941C177.533 392.35 177.781 392.721 178.094 393.034C178.566 393.499 179.164 393.815 179.815 393.941C180.465 394.068 181.138 394 181.75 393.746C182.362 393.491 182.885 393.062 183.254 392.512C183.623 391.962 183.821 391.315 183.824 390.652Z" fill="#0B0229"/>
<path fill-rule="evenodd" clip-rule="evenodd" d="M192.259 402.435C192.878 401.797 193.224 400.943 193.224 400.053C193.224 399.164 192.878 398.31 192.259 397.672C191.625 397.044 190.769 396.692 189.877 396.692C188.985 396.692 188.129 397.044 187.495 397.672C187.183 397.984 186.934 398.356 186.765 398.764C186.595 399.173 186.508 399.611 186.508 400.053C186.508 400.496 186.595 400.934 186.765 401.342C186.934 401.751 187.183 402.122 187.495 402.435C188.134 403.054 188.988 403.401 189.877 403.401C190.766 403.401 191.621 403.054 192.259 402.435Z" fill="#0B0229"/>
<path fill-rule="evenodd" clip-rule="evenodd" d="M201.588 411.353C201.92 411.048 202.183 410.677 202.362 410.264C202.541 409.85 202.631 409.404 202.627 408.954C202.624 408.507 202.531 408.066 202.352 407.656C202.174 407.247 201.914 406.878 201.588 406.572C200.899 405.942 199.998 405.592 199.063 405.592C198.129 405.592 197.228 405.942 196.539 406.572C196.202 406.871 195.933 407.238 195.748 407.649C195.563 408.059 195.466 408.504 195.464 408.954C195.466 409.399 195.563 409.838 195.749 410.242C195.934 410.647 196.203 411.007 196.539 411.3C197.211 411.948 198.111 412.308 199.046 412.302C199.992 412.317 200.907 411.957 201.588 411.3" fill="#0B0229"/>
<path fill-rule="evenodd" clip-rule="evenodd" d="M211.025 420.754C211.641 420.128 211.988 419.286 211.992 418.408C211.965 417.551 211.621 416.734 211.025 416.116C210.554 415.645 209.954 415.324 209.301 415.194C208.647 415.064 207.97 415.13 207.355 415.385C206.739 415.64 206.213 416.072 205.843 416.626C205.474 417.18 205.276 417.832 205.277 418.498C205.292 419.157 205.502 419.797 205.88 420.338C206.258 420.879 206.787 421.295 207.401 421.536C208.015 421.777 208.686 421.832 209.331 421.693C209.976 421.553 210.565 421.227 211.025 420.754Z" fill="#0B0229"/>
<path fill-rule="evenodd" clip-rule="evenodd" d="M220.463 430.192C221.094 429.56 221.449 428.703 221.449 427.81C221.449 426.917 221.094 426.06 220.463 425.428C219.831 424.797 218.974 424.442 218.081 424.442C217.188 424.442 216.331 424.797 215.699 425.428C215.386 425.741 215.138 426.112 214.969 426.521C214.799 426.93 214.712 427.368 214.712 427.81C214.712 428.252 214.799 428.69 214.969 429.099C215.138 429.508 215.386 429.879 215.699 430.192C216.011 430.504 216.383 430.751 216.792 430.917C217.201 431.083 217.639 431.165 218.081 431.159C218.972 431.164 219.828 430.816 220.463 430.192Z" fill="#0B0229"/>
<path fill-rule="evenodd" clip-rule="evenodd" d="M229.38 439.593C229.702 439.282 229.957 438.909 230.13 438.497C230.302 438.084 230.388 437.64 230.383 437.193C230.383 436.749 230.294 436.31 230.122 435.901C229.95 435.492 229.698 435.122 229.38 434.812C228.75 434.19 227.901 433.842 227.016 433.842C226.132 433.842 225.283 434.19 224.653 434.812C224.03 435.449 223.677 436.302 223.668 437.193C223.666 438.092 224.02 438.954 224.653 439.593C224.965 439.905 225.336 440.152 225.745 440.318C226.154 440.484 226.593 440.566 227.034 440.56C227.47 440.565 227.903 440.482 228.306 440.315C228.709 440.149 229.074 439.903 229.38 439.593Z" fill="#0B0229"/>
<path fill-rule="evenodd" clip-rule="evenodd" d="M239.229 448.994C239.556 448.68 239.814 448.301 239.986 447.882C240.159 447.463 240.243 447.012 240.232 446.559C240.232 446.115 240.143 445.676 239.971 445.267C239.799 444.858 239.547 444.487 239.229 444.177C238.599 443.556 237.75 443.208 236.866 443.208C235.981 443.208 235.132 443.556 234.502 444.177C234.187 444.488 233.938 444.859 233.768 445.268C233.599 445.678 233.514 446.116 233.517 446.559C233.508 447.005 233.591 447.448 233.76 447.861C233.93 448.274 234.182 448.647 234.502 448.959C235.132 449.58 235.981 449.928 236.866 449.928C237.75 449.928 238.599 449.58 239.229 448.959" fill="#0B0229"/>
<path fill-rule="evenodd" clip-rule="evenodd" d="M248.63 458.395C248.945 458.093 249.195 457.73 249.366 457.328C249.537 456.927 249.625 456.495 249.625 456.058C249.625 455.622 249.537 455.19 249.366 454.788C249.195 454.387 248.945 454.024 248.63 453.721C247.94 453.091 247.04 452.741 246.105 452.741C245.171 452.741 244.27 453.091 243.58 453.721C243.242 454.019 242.97 454.385 242.784 454.796C242.598 455.207 242.502 455.652 242.502 456.103C242.502 456.554 242.598 456.999 242.784 457.41C242.97 457.821 243.242 458.187 243.58 458.485C244.274 459.108 245.173 459.452 246.105 459.452C247.037 459.452 247.937 459.108 248.63 458.485" fill="#0B0229"/>
<path fill-rule="evenodd" clip-rule="evenodd" d="M158.002 348.552C167.385 342.463 178.332 339.222 189.519 339.222C200.705 339.222 211.652 342.463 221.035 348.552L241.253 328.478C226.534 316.823 208.311 310.481 189.536 310.481C170.762 310.481 152.539 316.823 137.82 328.478L158.002 348.552Z" fill="#0B0229"/>
<path fill-rule="evenodd" clip-rule="evenodd" d="M137.821 431.266C131.621 421.938 128.313 410.986 128.313 399.785C128.313 388.584 131.621 377.633 137.821 368.304L117.693 348.195C106.204 362.938 99.9646 381.094 99.9646 399.785C99.9646 418.477 106.204 436.633 117.693 451.376L137.821 431.266Z" fill="#0B0229"/>
<path fill-rule="evenodd" clip-rule="evenodd" d="M221.179 451.376C211.921 457.747 200.954 461.174 189.715 461.207C178.347 461.338 167.219 457.927 157.876 451.447L137.82 471.629C152.564 483.441 170.95 489.77 189.841 489.536C208.52 489.468 226.631 483.109 241.253 471.485L221.179 451.376Z" fill="#0B0229"/>
<path fill-rule="evenodd" clip-rule="evenodd" d="M240.859 368.322C247.259 377.759 250.598 388.939 250.421 400.34C250.331 411.363 247.006 422.116 240.859 431.266L261.004 451.376C272.61 436.791 278.974 418.728 279.073 400.089C279.31 381.226 272.979 362.867 261.165 348.158L240.859 368.322Z" fill="#0B0229"/>
<path fill-rule="evenodd" clip-rule="evenodd" d="M261.954 457.572C264.747 457.572 267.477 458.401 269.799 459.954C272.12 461.507 273.929 463.714 274.995 466.295C276.062 468.877 276.338 471.717 275.789 474.455C275.24 477.194 273.891 479.708 271.912 481.68C269.933 483.651 267.414 484.991 264.673 485.529C261.933 486.067 259.094 485.78 256.516 484.704C253.939 483.628 251.739 481.811 250.195 479.483C248.651 477.156 247.832 474.422 247.843 471.629C247.84 469.775 248.204 467.939 248.912 466.226C249.62 464.513 250.66 462.957 251.97 461.646C253.281 460.335 254.838 459.296 256.551 458.587C258.264 457.879 260.1 457.516 261.954 457.518" fill="#0B0229"/>
<path fill-rule="evenodd" clip-rule="evenodd" d="M117.567 457.571C121.22 457.702 124.68 459.244 127.219 461.875C129.757 464.505 131.176 468.018 131.176 471.673C131.176 475.329 129.757 478.842 127.219 481.472C124.68 484.102 121.22 485.645 117.567 485.775C113.914 485.645 110.454 484.102 107.916 481.472C105.378 478.842 103.959 475.329 103.959 471.673C103.959 468.018 105.378 464.505 107.916 461.875C110.454 459.244 113.914 457.702 117.567 457.571Z" fill="#0B0229"/>
<path fill-rule="evenodd" clip-rule="evenodd" d="M262.169 313.418C265.879 313.451 269.425 314.956 272.028 317.602C274.63 320.248 276.075 323.818 276.047 327.529C276.047 331.21 274.585 334.74 271.982 337.342C269.379 339.945 265.849 341.407 262.169 341.407C258.488 341.407 254.958 339.945 252.355 337.342C249.753 334.74 248.29 331.21 248.29 327.529C248.262 323.818 249.707 320.248 252.31 317.602C254.912 314.956 258.458 313.451 262.169 313.418Z" fill="#0B0229"/>
<path fill-rule="evenodd" clip-rule="evenodd" d="M117.353 313.418C119.189 313.404 121.011 313.752 122.713 314.442C124.415 315.131 125.965 316.15 127.273 317.439C128.582 318.727 129.624 320.261 130.34 321.953C131.056 323.644 131.432 325.46 131.446 327.296C131.432 329.133 131.056 330.949 130.34 332.64C129.624 334.332 128.582 335.866 127.273 337.154C125.965 338.443 124.415 339.461 122.713 340.151C121.011 340.841 119.189 341.189 117.353 341.175C113.642 341.203 110.071 339.758 107.425 337.155C104.78 334.553 103.275 331.007 103.242 327.296C103.275 323.586 104.78 320.04 107.425 317.437C110.071 314.835 113.642 313.39 117.353 313.418Z" fill="#0B0229"/>
<path d="M383.723 433.486L376.793 427.183C372.621 432.233 364.061 435.008 356.988 435.008C345.008 435.008 335.499 427.845 334.424 416.349H387.376C389.776 391.494 375.271 379.764 356.235 379.764C337.2 379.764 324.002 393.267 324.002 411.998C324.002 431.803 337.504 444.535 356.791 444.535C366.496 444.535 377.348 440.954 383.651 433.432L383.723 433.486ZM377.563 407.646H334.424C336.215 395.666 345.634 389.112 356.486 389.112C368.556 389.112 376.811 395.487 377.527 407.288V407.646H377.563ZM412.858 355.232H402.526V443.514H412.858V355.232ZM442.119 381.215H432.538V443.461H442.871V408.774C442.835 405.372 443.741 402.026 445.487 399.105C447.233 396.185 449.753 393.804 452.767 392.226C455.782 390.647 459.174 389.933 462.568 390.161C465.963 390.388 469.229 391.55 472.006 393.517L476.662 384.689C472.479 381.567 467.375 379.928 462.157 380.033C454.994 380.033 447.294 382.289 442.996 390.366L442.244 381.036L442.119 381.215ZM482.464 412.481C482.464 431.409 496.091 444.714 514.697 444.714C533.302 444.714 547.109 431.481 547.109 412.481C547.109 393.195 533.732 379.818 514.697 379.818C496.216 379.764 482.464 393.141 482.464 412.427V412.481ZM536.955 412.481C536.83 425.607 527.608 434.937 514.75 434.937C501.893 434.937 492.814 425.607 492.814 412.481C492.814 398.621 502.144 389.291 514.876 389.291C527.608 389.291 536.937 398.567 536.937 412.427L536.955 412.481ZM562.025 381.09V443.461H572.233V410.046C572.233 398.818 580.058 389.864 591.411 389.739C603.266 389.739 610.321 397.17 610.321 409.15V443.461H620.672V408.953C620.672 390.67 609.068 380.087 593.292 380.087C589.133 380.004 585.017 380.939 581.302 382.812C577.588 384.685 574.388 387.438 571.982 390.831L571.481 380.875L562.025 381.09ZM699.893 355.232H689.686V392.514C685.263 384.062 675.181 379.979 666.407 379.979C648.75 379.979 634.997 391.315 634.997 412.212C634.997 432.77 648.75 444.445 666.532 444.445C671.172 444.586 675.766 443.501 679.853 441.3C683.94 439.1 687.375 435.861 689.812 431.91L690.313 443.264H700.019V355.052L699.893 355.232ZM667.159 389.613C670.109 389.548 673.042 390.086 675.777 391.195C678.512 392.303 680.992 393.959 683.064 396.059C685.137 398.16 686.758 400.663 687.829 403.412C688.9 406.162 689.398 409.102 689.292 412.051C689.292 425.679 679.569 434.758 667.213 434.758C654.857 434.758 645.276 426.556 645.276 412.177C645.276 397.797 654.875 389.793 666.765 389.613H667.159Z" fill="#0B0229"/>
</g>
<defs>
<clipPath id="clip0_2232_105">
<rect width="600" height="179.072" fill="white" transform="translate(100 310.464)"/>
</clipPath>
</defs>
</svg>
