<svg width="800" height="800" viewBox="0 0 800 800" fill="none" xmlns="http://www.w3.org/2000/svg">
<rect width="800" height="800" fill="white"/>
<path fill-rule="evenodd" clip-rule="evenodd" d="M164.835 337.773L196.174 354.33C198.524 355.572 198.524 357.586 196.174 358.827L164.835 375.384C162.485 376.626 158.674 376.626 156.323 375.384L124.984 358.827C122.634 357.586 122.634 355.572 124.984 354.33L156.323 337.773C158.674 336.532 162.485 336.532 164.835 337.773Z" stroke="#1969FF" stroke-width="5"/>
<path fill-rule="evenodd" clip-rule="evenodd" d="M164.835 378.176L196.174 394.733C198.524 395.974 198.524 397.988 196.174 399.23L164.835 415.787C162.485 417.028 158.674 417.028 156.323 415.787L124.984 399.23C122.634 397.988 122.634 395.974 124.984 394.733L156.323 378.176C158.674 376.934 162.485 376.934 164.835 378.176Z" stroke="#1969FF" stroke-width="5"/>
<path d="M204.077 439.474H118.362V463.158H204.077V439.474Z" fill="white"/>
<path fill-rule="evenodd" clip-rule="evenodd" d="M164.835 420.436L196.174 436.993C198.524 438.235 198.524 440.248 196.174 441.49L164.835 458.047C162.485 459.289 158.674 459.289 156.323 458.047L124.984 441.49C122.634 440.248 122.634 438.235 124.984 436.993L156.323 420.436C158.674 419.194 162.485 419.194 164.835 420.436Z" stroke="#1969FF" stroke-width="5"/>
<path d="M201.658 342.252C207.794 345.967 210.81 347.36 210.81 356.648" stroke="#1969FF" stroke-width="5"/>
<path d="M118.908 452.175C112.772 448.46 109.755 447.067 109.755 437.779" stroke="#1969FF" stroke-width="5"/>
<path d="M122.99 438.777V357.012" stroke="#1969FF" stroke-width="5" stroke-linecap="square"/>
<path d="M198.169 438.777V357.012" stroke="#1969FF" stroke-width="5" stroke-linecap="square"/>
<path d="M160.579 415.557V377.477" stroke="#1969FF" stroke-width="5" stroke-linecap="square"/>
<path d="M269.342 442.105V384.451H285.312V373.895H269.342V366.316C269.342 357.745 273.087 353.459 280.575 353.459C282.741 353.459 285.042 353.82 287.478 354.542V343.308C284.5 342.406 281.207 341.955 277.598 341.955C270.651 341.955 265.26 343.94 261.425 347.91C257.591 351.88 255.673 357.654 255.673 365.233V373.895H242.545V384.451H255.673V442.105H269.342ZM325.508 443.053C330.741 443.053 335.32 441.97 339.245 439.805C343.169 437.639 346.124 434.527 348.109 430.466V442.105H361.643V373.895H348.109V384.993C346.034 380.933 343.057 377.797 339.177 375.587C335.297 373.376 330.741 372.271 325.508 372.271C319.643 372.271 314.41 373.76 309.809 376.737C305.207 379.714 301.621 383.91 299.049 389.324C296.478 394.737 295.192 400.963 295.192 408C295.192 415.038 296.455 421.196 298.981 426.474C301.508 431.752 305.049 435.835 309.606 438.722C314.162 441.609 319.463 443.053 325.508 443.053ZM328.756 432.226C322.53 432.226 317.681 430.105 314.207 425.865C310.733 421.624 308.997 415.669 308.997 408C308.997 400.241 310.733 394.173 314.207 389.797C317.681 385.421 322.485 383.233 328.621 383.233C334.846 383.233 339.651 385.354 343.034 389.594C346.418 393.835 348.109 399.88 348.109 407.73C348.109 415.489 346.418 421.511 343.034 425.797C339.651 430.083 334.891 432.226 328.756 432.226ZM395.207 442.105V403.263C395.207 397.218 396.944 392.391 400.418 388.782C403.891 385.173 408.515 383.369 414.29 383.369C419.342 383.369 423.019 384.722 425.32 387.429C427.621 390.136 428.771 394.466 428.771 400.421V442.105H442.44V399.609C442.44 381.384 434.275 372.271 417.944 372.271C412.711 372.271 408.042 373.421 403.936 375.722C399.831 378.023 396.696 381.339 394.53 385.669L393.312 373.895H380.591C381.312 379.579 381.673 385.985 381.673 393.113V442.105H395.207ZM488.185 443.053C491.974 443.053 495.357 442.557 498.335 441.564V430.466C495.899 431.188 493.508 431.549 491.162 431.549C487.553 431.549 484.733 430.579 482.703 428.639C480.673 426.699 479.658 423.384 479.658 418.692V384.451H498.47V373.895H479.658V352.105L465.989 356.842V373.895H452.726V384.451H465.989V419.775C465.989 427.354 467.929 433.128 471.809 437.098C475.688 441.068 481.147 443.053 488.185 443.053ZM540.425 443.053C547.012 443.053 552.831 441.609 557.884 438.722C562.936 435.835 566.839 431.73 569.591 426.406C572.342 421.083 573.718 414.857 573.718 407.73C573.718 400.602 572.342 394.354 569.591 388.985C566.839 383.617 562.936 379.489 557.884 376.602C552.831 373.714 547.012 372.271 540.425 372.271C533.748 372.271 527.884 373.714 522.831 376.602C517.779 379.489 513.876 383.617 511.124 388.985C508.372 394.354 506.997 400.602 506.997 407.73C506.997 414.857 508.372 421.083 511.124 426.406C513.876 431.73 517.779 435.835 522.831 438.722C527.884 441.609 533.748 443.053 540.425 443.053ZM540.29 432.226C534.064 432.226 529.26 430.151 525.876 426C522.493 421.85 520.801 415.76 520.801 407.73C520.801 399.88 522.515 393.835 525.944 389.594C529.372 385.354 534.2 383.233 540.425 383.233C546.56 383.233 551.32 385.354 554.703 389.594C558.087 393.835 559.778 399.88 559.778 407.73C559.778 415.76 558.109 421.85 554.771 426C551.433 430.151 546.606 432.226 540.29 432.226ZM603.222 442.105V403.534C603.222 397.308 604.756 392.391 607.824 388.782C610.891 385.173 615.042 383.369 620.275 383.369C624.786 383.369 628.057 384.722 630.087 387.429C632.117 390.136 633.132 394.421 633.132 400.286V442.105H646.801V403.534C646.801 397.308 648.312 392.391 651.335 388.782C654.357 385.173 658.485 383.369 663.718 383.369C668.23 383.369 671.5 384.722 673.53 387.429C675.56 390.136 676.576 394.421 676.576 400.286V442.105H690.245V399.609C690.245 381.384 682.666 372.271 667.508 372.271C662.455 372.271 657.921 373.444 653.906 375.79C649.891 378.136 646.846 381.339 644.771 385.399C641.523 376.647 634.621 372.271 624.064 372.271C619.102 372.271 614.771 373.399 611.072 375.654C607.372 377.91 604.53 381.113 602.545 385.263L601.327 373.895H588.606C589.327 379.579 589.688 385.985 589.688 393.113V442.105H603.222Z" fill="#1969FF"/>
</svg>
