<svg width="800" height="800" viewBox="0 0 800 800" fill="none" xmlns="http://www.w3.org/2000/svg">
<rect width="800" height="800" fill="white"/>
<path d="M98.636 382.5V293.54H113.484L141.004 371.364L168.396 293.54H183.244V382.5H175.308V301.732H173.516L145.612 379.556H136.268L108.364 301.732H106.572V382.5H98.636ZM200.662 350.372C200.662 338.34 202.667 329.807 206.678 324.772C210.774 319.737 217.686 317.22 227.414 317.22C237.227 317.22 244.139 319.737 248.15 324.772C252.246 329.807 254.294 338.34 254.294 350.372C254.294 362.404 252.417 370.98 248.662 376.1C244.993 381.22 237.953 383.78 227.542 383.78C217.131 383.78 210.049 381.22 206.294 376.1C202.539 370.98 200.662 362.404 200.662 350.372ZM208.598 350.244C208.598 360.313 209.75 367.311 212.054 371.236C214.443 375.076 219.563 376.996 227.414 376.996C235.35 376.996 240.513 375.033 242.902 371.108C245.291 367.183 246.486 360.228 246.486 350.244C246.486 340.175 245.121 333.305 242.39 329.636C239.745 325.881 234.795 324.004 227.542 324.004C220.289 324.004 215.297 325.839 212.566 329.508C209.921 333.177 208.598 340.089 208.598 350.244ZM270.85 382.5V318.5H278.402V327.716C281.559 325.497 285.399 323.364 289.922 321.316C294.53 319.268 298.754 317.903 302.594 317.22V324.9C298.925 325.668 295.085 326.863 291.074 328.484C287.063 330.02 283.949 331.385 281.73 332.58L278.402 334.5V382.5H270.85ZM354.968 376.1L358.808 375.716L359.064 381.988C349.421 383.183 341.272 383.78 334.616 383.78C325.4 383.695 318.957 380.964 315.288 375.588C311.619 370.212 309.784 361.935 309.784 350.756C309.784 328.399 318.573 317.22 336.152 317.22C344.6 317.22 350.915 319.652 355.096 324.516C359.277 329.295 361.368 336.975 361.368 347.556L361.112 353.7H317.592C317.592 361.551 318.915 367.396 321.56 371.236C324.291 374.991 328.899 376.868 335.384 376.868C341.955 376.868 348.483 376.612 354.968 376.1ZM317.592 347.3H353.688C353.688 338.852 352.28 332.836 349.464 329.252C346.733 325.668 342.296 323.876 336.152 323.876C330.093 323.876 325.485 325.753 322.328 329.508C319.171 333.177 317.592 339.108 317.592 347.3ZM437.609 325.284H416.233V356.9C416.233 365.177 416.83 370.596 418.025 373.156C419.22 375.716 422.036 376.996 426.473 376.996L438.249 376.1L438.761 382.628C433.129 383.481 428.82 383.908 425.833 383.908C419.348 383.908 414.825 382.329 412.265 379.172C409.79 375.929 408.553 369.785 408.553 360.74V325.284H399.081V318.5H408.553V298.404H416.233V318.5H437.609V325.284ZM446.912 350.372C446.912 338.34 448.917 329.807 452.928 324.772C457.024 319.737 463.936 317.22 473.664 317.22C483.477 317.22 490.389 319.737 494.4 324.772C498.496 329.807 500.544 338.34 500.544 350.372C500.544 362.404 498.667 370.98 494.912 376.1C491.243 381.22 484.203 383.78 473.792 383.78C463.381 383.78 456.299 381.22 452.544 376.1C448.789 370.98 446.912 362.404 446.912 350.372ZM454.848 350.244C454.848 360.313 456 367.311 458.304 371.236C460.693 375.076 465.813 376.996 473.664 376.996C481.6 376.996 486.763 375.033 489.152 371.108C491.541 367.183 492.736 360.228 492.736 350.244C492.736 340.175 491.371 333.305 488.64 329.636C485.995 325.881 481.045 324.004 473.792 324.004C466.539 324.004 461.547 325.839 458.816 329.508C456.171 333.177 454.848 340.089 454.848 350.244ZM120.908 458.22C124.748 458.22 129.313 458.647 134.604 459.5L137.548 459.884L137.164 466.412C130.423 465.559 125.431 465.132 122.188 465.132C114.593 465.132 109.388 467.009 106.572 470.764C103.756 474.433 102.348 481.26 102.348 491.244C102.348 501.143 103.628 508.055 106.188 511.98C108.748 515.905 114.081 517.868 122.188 517.868L137.42 516.716L137.676 523.244C130.081 524.268 124.449 524.78 120.78 524.78C110.625 524.78 103.671 522.263 99.916 517.228C96.2467 512.193 94.412 503.532 94.412 491.244C94.412 478.956 96.4173 470.38 100.428 465.516C104.524 460.652 111.351 458.22 120.908 458.22ZM148.912 491.372C148.912 479.34 150.917 470.807 154.928 465.772C159.024 460.737 165.936 458.22 175.664 458.22C185.477 458.22 192.389 460.737 196.4 465.772C200.496 470.807 202.544 479.34 202.544 491.372C202.544 503.404 200.667 511.98 196.912 517.1C193.243 522.22 186.203 524.78 175.792 524.78C165.381 524.78 158.299 522.22 154.544 517.1C150.789 511.98 148.912 503.404 148.912 491.372ZM156.848 491.244C156.848 501.313 158 508.311 160.304 512.236C162.693 516.076 167.813 517.996 175.664 517.996C183.6 517.996 188.763 516.033 191.152 512.108C193.541 508.183 194.736 501.228 194.736 491.244C194.736 481.175 193.371 474.305 190.64 470.636C187.995 466.881 183.045 465.004 175.792 465.004C168.539 465.004 163.547 466.839 160.816 470.508C158.171 474.177 156.848 481.089 156.848 491.244ZM226.652 523.5H219.1V459.5H226.652V464.236C233.137 460.225 240.049 458.22 247.388 458.22C254.727 458.22 259.932 460.481 263.004 465.004C266.076 463.127 269.788 461.548 274.14 460.268C278.577 458.903 282.545 458.22 286.044 458.22C294.577 458.22 300.252 460.481 303.068 465.004C305.969 469.441 307.42 477.719 307.42 489.836V523.5H299.868V490.22C299.868 480.407 298.929 473.793 297.052 470.38C295.26 466.881 291.292 465.132 285.148 465.132C282.076 465.132 278.919 465.601 275.676 466.54C272.433 467.393 269.959 468.289 268.252 469.228L265.692 470.508C266.972 473.751 267.612 480.321 267.612 490.22V523.5H259.932V490.476C259.932 480.492 258.993 473.793 257.116 470.38C255.324 466.881 251.399 465.132 245.34 465.132C242.353 465.132 239.281 465.601 236.124 466.54C233.052 467.393 230.705 468.289 229.084 469.228L226.652 470.508V523.5ZM368.343 517.1L372.183 516.716L372.439 522.988C362.796 524.183 354.647 524.78 347.991 524.78C338.775 524.695 332.332 521.964 328.663 516.588C324.994 511.212 323.159 502.935 323.159 491.756C323.159 469.399 331.948 458.22 349.527 458.22C357.975 458.22 364.29 460.652 368.471 465.516C372.652 470.295 374.743 477.975 374.743 488.556L374.487 494.7H330.967C330.967 502.551 332.29 508.396 334.935 512.236C337.666 515.991 342.274 517.868 348.759 517.868C355.33 517.868 361.858 517.612 368.343 517.1ZM330.967 488.3H367.063C367.063 479.852 365.655 473.836 362.839 470.252C360.108 466.668 355.671 464.876 349.527 464.876C343.468 464.876 338.86 466.753 335.703 470.508C332.546 474.177 330.967 480.108 330.967 488.3ZM392.011 523.5V510.7H400.459V523.5H392.011ZM392.523 494.956L392.139 434.54H400.203L399.691 494.956H392.523Z" fill="#000426"/>
</svg>
