<svg width="800" height="800" viewBox="0 0 800 800" fill="none" xmlns="http://www.w3.org/2000/svg">
<rect width="800" height="800" fill="white"/>
<g clip-path="url(#clip0_6472_25304)">
<path d="M357.54 456.013V408.992H320.09V450.644C320.09 452.059 319.528 453.416 318.527 454.417C317.527 455.417 316.169 455.979 314.754 455.979H298.489V349.267C298.489 347.852 299.051 346.495 300.052 345.494C301.053 344.494 302.41 343.932 303.825 343.932H320.09V389.896H357.54V349.312C357.54 347.897 358.102 346.54 359.103 345.539C360.104 344.539 361.461 343.977 362.876 343.977H379.141V450.689C379.141 452.104 378.579 453.461 377.578 454.461C376.578 455.462 375.221 456.024 373.805 456.024L357.54 456.013Z" fill="#282B2A"/>
<path d="M404.942 456.012V349.3C404.942 347.885 405.505 346.528 406.505 345.528C407.506 344.527 408.863 343.965 410.278 343.965H477.832V357.894C477.832 359.309 477.27 360.666 476.27 361.666C475.269 362.667 473.912 363.229 472.497 363.229H426.543V389.896H470.216V403.836C470.216 405.251 469.654 406.608 468.654 407.609C467.653 408.609 466.296 409.172 464.881 409.172H426.543V436.737H477.832V450.677C477.832 452.092 477.27 453.449 476.27 454.45C475.269 455.45 473.912 456.012 472.497 456.012H404.942Z" fill="#282B2A"/>
<path d="M535.917 456.272C530.382 456.382 524.882 455.364 519.753 453.281C514.624 451.197 509.973 448.091 506.083 444.151C494.85 432.919 495.209 419.125 495.209 400.006C495.209 380.888 494.895 367.06 506.083 355.872C509.973 351.933 514.624 348.827 519.753 346.743C524.882 344.66 530.382 343.642 535.917 343.752C556.597 343.752 572.75 355.569 576.636 378.72H558.664C557.584 378.722 556.53 378.395 555.641 377.783C554.752 377.171 554.071 376.303 553.687 375.294C550.992 368.161 545.532 363.028 536.097 363.028C530.2 363.028 525.381 365.196 522.269 368.779C518.079 373.441 516.833 378.72 516.833 400.006C516.833 421.293 518.079 426.583 522.269 431.245C525.381 434.817 530.2 436.996 536.097 436.996C546.981 436.996 552.575 430.167 554.743 421.27H569.953C570.78 421.267 571.597 421.457 572.338 421.825C573.08 422.192 573.725 422.728 574.223 423.389C574.722 424.049 575.059 424.817 575.209 425.631C575.358 426.445 575.316 427.282 575.086 428.077C569.38 446.769 554.35 456.272 535.917 456.272Z" fill="#282B2A"/>
<path d="M662.31 444.151C654.537 451.913 645.056 456.271 632.464 456.271C619.872 456.271 610.245 451.913 602.472 444.151C591.239 432.918 591.599 419.124 591.599 400.006C591.599 380.888 591.284 367.06 602.472 355.872C610.245 348.11 619.883 343.752 632.464 343.752C645.045 343.752 654.537 348.11 662.31 355.872C673.543 367.105 673.34 380.899 673.34 400.006C673.34 419.113 673.498 432.952 662.31 444.151ZM646.303 368.891C644.562 366.98 642.43 365.467 640.052 364.455C637.673 363.443 635.104 362.956 632.52 363.027C629.903 362.954 627.301 363.443 624.888 364.46C622.476 365.477 620.31 367 618.535 368.925C614.345 373.586 613.256 378.72 613.256 400.006C613.256 421.292 614.379 426.426 618.535 431.087C620.307 433.016 622.473 434.542 624.886 435.561C627.298 436.581 629.902 437.07 632.52 436.996C635.117 437.07 637.699 436.58 640.088 435.56C642.477 434.54 644.616 433.014 646.359 431.087C650.549 426.426 651.796 421.304 651.796 400.006C651.796 378.709 650.493 373.586 646.303 368.925V368.891Z" fill="#282B2A"/>
<path d="M160.084 339.91V357.422C146.035 362.708 134.243 372.684 126.7 385.661V333.406H153.592C155.315 333.409 156.966 334.096 158.183 335.315C159.401 336.535 160.084 338.187 160.084 339.91Z" fill="#01943F"/>
<path d="M206.491 362.073V378.855C206.489 383.296 204.723 387.554 201.583 390.694C198.443 393.834 194.184 395.6 189.743 395.603H184.329C177.931 395.606 171.795 398.146 167.267 402.668C162.74 407.189 160.19 413.321 160.178 419.72V466.606H133.22C131.495 466.606 129.84 465.92 128.621 464.701C127.401 463.481 126.716 461.827 126.716 460.102V420.394C126.716 419.697 126.716 419.001 126.716 418.304C126.719 403.381 132.649 389.07 143.203 378.518C153.756 367.967 168.069 362.039 182.992 362.039C183.689 362.039 184.385 362.039 185.082 362.039L206.491 362.073Z" fill="#01943F"/>
<path d="M215.175 460.103V442.591C229.224 437.305 241.016 427.329 248.559 414.352V466.607H221.667C219.944 466.604 218.293 465.917 217.076 464.698C215.858 463.478 215.175 461.826 215.175 460.103Z" fill="#01943F"/>
<path d="M168.772 437.939V421.157C168.775 416.716 170.541 412.458 173.681 409.318C176.821 406.178 181.08 404.412 185.521 404.409H190.98C197.379 404.409 203.517 401.869 208.045 397.347C212.573 392.826 215.122 386.691 215.13 380.292V333.406H242.089C242.943 333.406 243.789 333.574 244.578 333.901C245.367 334.228 246.084 334.707 246.688 335.311C247.292 335.915 247.771 336.632 248.098 337.421C248.425 338.21 248.593 339.056 248.593 339.91V379.618C248.593 380.315 248.593 381.011 248.593 381.707C248.593 389.096 247.138 396.413 244.31 403.239C241.483 410.066 237.338 416.268 232.113 421.493C226.889 426.718 220.686 430.862 213.86 433.69C207.033 436.517 199.717 437.973 192.328 437.973H190.238L168.772 437.939Z" fill="#01943F"/>
</g>
<defs>
<clipPath id="clip0_6472_25304">
<rect width="546.68" height="133.188" fill="white" transform="translate(126.66 333.406)"/>
</clipPath>
</defs>
</svg>
