<svg width="800" height="800" viewBox="0 0 800 800" fill="none" xmlns="http://www.w3.org/2000/svg">
<rect width="800" height="800" fill="white"/>
<path d="M197.187 399.35L257.769 460.591C273.293 444.011 281.79 422.061 281.475 399.35C281.362 376.718 272.923 354.919 257.769 338.109L197.187 399.35Z" fill="#6F6558"/>
<path d="M192.578 403.957L132.654 463.881L192.578 488.904L252.501 463.881L192.578 403.957Z" fill="#6F6558"/>
<path d="M190.598 397.357L252.497 334.8L195.207 311.094L138.576 450.037L190.598 397.357Z" fill="#6F6558"/>
<path d="M103.676 399.354C103.67 421.813 112.135 443.447 127.382 459.937L187.305 315.066L103.676 399.354Z" fill="#6F6558"/>
<path d="M669.325 382.22C664.971 382.057 660.654 383.072 656.829 385.158C653.005 387.244 649.814 390.324 647.594 394.073V383.537H635.741V453.338H647.594V407.902C648.093 403.474 650.298 399.416 653.74 396.588C657.183 393.76 661.592 392.385 666.032 392.756C677.885 392.756 684.47 400 684.47 413.17V453.338H696.323V411.194C696.323 393.415 685.787 382.22 669.325 382.22Z" fill="#3D332C"/>
<path d="M605.449 360.504H593.596V374.332C593.626 375.551 593.408 376.763 592.955 377.895C592.502 379.027 591.824 380.056 590.962 380.918C590.1 381.78 589.072 382.458 587.94 382.91C586.808 383.363 585.596 383.581 584.377 383.551H571.207L549.476 436.89L527.087 383.551H515.234L543.55 452.036L536.306 469.815H520.502V480.351H532.355C535.736 480.351 539.04 479.351 541.852 477.476C544.665 475.601 546.859 472.935 548.159 469.815L579.109 394.746H593.596V436.232C593.385 438.508 593.656 440.803 594.39 442.967C595.125 445.132 596.307 447.117 597.86 448.794C599.413 450.472 601.302 451.803 603.404 452.702C605.506 453.601 607.773 454.047 610.059 454.011H626.521V442.817H606.108V394.087H626.521V383.551H606.108V360.504H605.449Z" fill="#3D332C"/>
<path d="M507.332 407.913C507.332 392.109 496.138 382.89 478.358 382.89C470.918 382.651 463.663 385.233 458.045 390.118C452.428 395.002 448.864 401.829 448.067 409.23H459.92C460.45 404.707 462.618 400.534 466.016 397.501C469.413 394.467 473.804 392.783 478.358 392.768C480.612 392.51 482.895 392.754 485.044 393.481C487.194 394.207 489.156 395.399 490.791 396.972C492.426 398.544 493.695 400.458 494.505 402.577C495.315 404.696 495.648 406.968 495.479 409.23V413.84H479.017C455.969 413.84 446.092 421.083 446.092 433.595C446.092 446.765 455.969 454.667 472.432 454.667C484.943 454.667 492.845 450.057 496.138 442.155C496.796 448.74 500.747 453.35 509.966 453.35H517.868V442.814H507.332V407.913ZM495.479 432.936C495.479 440.18 486.919 445.448 474.407 445.448C464.53 445.448 458.603 441.497 458.603 434.912V432.278C458.603 425.693 465.188 421.742 479.017 421.742H495.479V432.936Z" fill="#3D332C"/>
<path d="M427.649 355.215H415.796V435.552C415.585 437.828 415.856 440.123 416.59 442.288C417.325 444.452 418.507 446.438 420.06 448.115C421.613 449.792 423.502 451.123 425.604 452.022C427.706 452.921 429.973 453.367 432.259 453.331H438.185V442.795H427.649V355.215Z" fill="#3D332C"/>
<path d="M334.805 355.215H346.658V453.331H334.805V355.215Z" fill="#3D332C"/>
<path d="M407.9 355.215H393.413L356.537 392.091C354.85 393.834 353.853 396.13 353.732 398.552C353.611 400.975 354.374 403.359 355.878 405.261L394.071 453.331H409.217L365.756 398.017L407.9 355.215Z" fill="#3D332C"/>
</svg>
