<svg width="800" height="800" viewBox="0 0 800 800" fill="none" xmlns="http://www.w3.org/2000/svg">
<rect width="800" height="800" fill="white"/>
<path d="M315.477 390.001C317.856 390.03 320.226 390.302 322.55 390.812C325.204 391.365 327.769 392.285 330.171 393.545C332.704 394.867 335.005 396.594 336.981 398.658C339.105 400.881 340.683 403.567 341.591 406.504C342.155 408.298 342.535 410.145 342.725 412.015C342.951 414.168 342.986 416.336 342.83 418.495C343.519 419.102 344.32 419.569 345.188 419.869C345.987 420.132 346.824 420.266 347.665 420.267C348.917 420.244 350.145 419.914 351.239 419.306C352.531 418.6 353.74 417.751 354.843 416.776C356.06 415.709 357.195 414.552 358.237 413.314C359.303 412.03 360.325 410.739 361.241 409.455C362.157 408.171 362.975 406.94 363.688 405.791C364.402 404.642 364.98 403.644 365.445 402.848C365.59 402.662 365.78 402.516 365.996 402.423C366.213 402.329 366.449 402.292 366.684 402.315C367.622 402.388 368.5 402.802 369.154 403.478C370.093 404.372 370.777 405.499 371.137 406.744C371.602 408.308 371.7 409.958 371.422 411.565C370.987 413.706 369.965 415.684 368.471 417.279C367.585 418.665 366.584 420.27 365.468 422.092C364.335 423.917 363.049 425.643 361.623 427.25C360.231 428.83 358.626 430.209 356.856 431.35C355.124 432.462 353.102 433.04 351.044 433.009C349.545 432.999 348.055 432.785 346.614 432.371C344.932 431.86 343.315 431.157 341.794 430.276C340.808 433.201 339.399 435.966 337.612 438.482C335.832 440.966 333.631 443.118 331.109 444.842C328.394 446.679 325.407 448.077 322.257 448.987C318.62 450.026 314.852 450.532 311.069 450.488C309.133 450.428 307.211 450.128 305.348 449.595C302.935 448.94 300.626 447.952 298.485 446.659C296.074 445.209 293.894 443.405 292.021 441.306C289.947 438.984 288.396 436.244 287.471 433.272C286.698 430.759 286.215 428.167 286.029 425.546C285.784 422.446 285.877 419.329 286.307 416.25C286.761 412.995 287.603 409.807 288.815 406.752C290.041 403.634 291.844 400.776 294.13 398.328C296.589 395.733 299.567 393.687 302.87 392.321C306.868 390.69 311.16 389.9 315.477 390.001ZM315.74 404.169C313.287 404.123 310.872 404.78 308.779 406.061C306.785 407.302 305.129 409.017 303.959 411.054C302.735 413.205 301.99 415.594 301.774 418.06C301.51 420.771 301.828 423.507 302.705 426.086C303.087 427.225 303.536 428.341 304.049 429.427C304.612 430.644 305.332 431.783 306.189 432.814C307.069 433.872 308.139 434.758 309.343 435.427C310.674 436.161 312.177 436.531 313.697 436.5C316.149 436.526 318.551 435.812 320.59 434.45C322.587 433.145 324.24 431.378 325.41 429.3C326.627 427.089 327.356 424.645 327.55 422.129C327.785 419.382 327.451 416.617 326.567 414.005C326.198 412.869 325.767 411.753 325.275 410.664C324.756 409.506 324.065 408.432 323.226 407.48C322.362 406.502 321.32 405.697 320.155 405.108C318.788 404.449 317.286 404.122 315.77 404.154L315.74 404.169Z" fill="#F2B705"/>
<path d="M190.14 442.596C189.725 438.056 189.282 432.801 188.811 426.829C188.341 420.857 187.868 414.6 187.392 408.058C186.922 401.551 186.454 394.991 185.988 388.378C185.522 381.766 185.127 375.589 184.802 369.848C183.055 375.239 181.283 380.65 179.486 386.081C177.689 391.512 175.992 396.678 174.395 401.578C172.788 406.464 171.299 410.886 169.928 414.845C168.556 418.805 167.447 422.001 166.601 424.434C165.708 426.063 164.799 427.625 163.868 429.104C163.02 430.471 162.066 431.769 161.015 432.986C160.146 434.015 159.135 434.915 158.012 435.659C157.062 436.299 155.944 436.643 154.798 436.65C153.499 436.697 152.214 436.369 151.096 435.704C150.602 435.387 150.18 434.969 149.859 434.477C149.538 433.985 149.325 433.431 149.234 432.851C149.182 432.588 149.144 432.31 149.122 432.1C149.109 431.848 149.129 431.595 149.182 431.349C147.395 423.841 145.688 416.28 144.061 408.666C142.434 401.053 140.895 393.544 139.443 386.141L138.43 380.885C138.089 379.143 137.782 377.426 137.506 375.734C136.32 380.49 134.983 385.428 133.497 390.548C132.01 395.669 130.403 400.722 128.676 405.708C126.949 410.713 125.11 415.519 123.158 420.124C121.359 424.433 119.319 428.637 117.046 432.715C115.172 436.128 112.98 439.356 110.499 442.356C108.645 444.7 106.297 446.605 103.621 447.935C101.874 448.728 100.067 449.379 98.2148 449.88C96.8302 450.25 95.4056 450.449 93.9726 450.473C92.4027 450.562 90.8438 450.161 89.5126 449.324C88.5253 448.68 87.8299 447.674 87.5754 446.523C87.3434 445.092 87.6511 443.626 88.4389 442.409C89.3809 440.89 90.7945 439.722 92.4634 439.083C94.7109 438.132 96.9634 436.032 99.221 432.783C101.743 429.044 103.949 425.101 105.813 420.995C107.956 416.355 110.038 411.179 112.06 405.467C114.083 399.756 115.982 393.975 117.759 388.123C119.546 382.267 121.191 376.525 122.692 370.899C124.194 365.273 125.503 360.197 126.619 355.672C127.735 351.132 128.649 347.342 129.36 344.304C130.058 341.263 130.501 339.379 130.674 338.643C130.974 337.184 131.838 335.903 133.076 335.076C134.218 334.35 135.544 333.964 136.898 333.965C137.681 333.914 138.465 334.026 139.203 334.292C139.941 334.558 140.615 334.973 141.185 335.512C142.154 336.525 142.845 338.38 143.363 341.023C144.429 344.352 145.393 347.478 146.254 350.401C147.115 353.324 147.95 356.328 148.761 359.411C149.567 362.499 150.358 365.826 151.134 369.39C151.91 372.954 152.746 377.058 153.642 381.703C154.298 385.037 154.946 388.709 155.586 392.718C156.227 396.728 157.033 401.215 158.004 406.181C162.104 394.668 165.74 384.517 168.914 375.727C172.087 366.937 174.908 359.574 177.376 353.637C179.197 348.984 181.378 344.48 183.901 340.167C185.803 337.134 187.49 335.617 188.961 335.617H189.494C189.649 335.628 189.805 335.628 189.96 335.617C190.116 335.587 190.274 335.572 190.433 335.572C191.694 335.572 192.851 336.365 193.902 337.952C195.065 339.84 195.848 341.936 196.207 344.124C196.497 346.717 196.808 349.93 197.138 353.765C197.468 357.599 197.801 361.834 198.137 366.469C198.497 371.094 198.855 375.967 199.21 381.088C199.566 386.208 199.921 391.289 200.276 396.33C200.637 401.375 200.995 406.273 201.35 411.024C201.706 415.774 202.078 420.076 202.469 423.931C202.498 424.637 202.583 425.34 202.724 426.033L203.145 428.21C203.415 429.577 203.708 430.966 204.031 432.363C204.354 433.759 204.646 435.148 204.917 436.522C205.227 438.109 205.46 439.716 205.615 441.343C205.781 442.811 205.622 444.298 205.149 445.697C204.644 447.05 203.668 448.174 202.401 448.866C201.025 449.677 198.99 450.087 196.297 450.097C195.6 450.1 194.911 449.958 194.271 449.682C193.631 449.405 193.056 449 192.58 448.491C191.499 447.342 190.681 445.397 190.14 442.596Z" fill="#F2B705"/>
<path d="M360.955 399.905C361.293 397.652 362.058 395.933 363.267 394.822C364.345 393.756 365.798 393.155 367.314 393.147C368.683 393.197 370 393.687 371.069 394.544C372.401 395.571 373.357 397.01 373.787 398.636C374.007 399.371 374.158 400.125 374.237 400.888C374.321 401.734 374.296 402.587 374.162 403.426C375.027 401.704 376.203 400.156 377.631 398.861C379.358 397.231 381.277 395.817 383.345 394.649C385.552 393.389 387.885 392.363 390.305 391.586C392.669 390.814 395.139 390.413 397.626 390.399C400.253 390.371 402.837 391.073 405.089 392.427C407.342 393.771 408.933 396.068 409.909 399.297C410.494 401.233 410.819 403.237 410.878 405.258C410.937 407.328 410.834 409.399 410.57 411.453C410.299 413.501 409.91 415.531 409.406 417.535C408.911 419.524 408.385 421.386 407.83 423.136C407.274 424.885 406.778 426.485 406.328 427.956C405.877 429.428 405.525 430.629 405.299 431.568C404.886 432.499 404.848 433.553 405.194 434.511C405.337 434.944 405.597 435.328 405.945 435.622C406.329 435.949 406.822 436.121 407.327 436.103C407.73 436.094 408.132 436.051 408.528 435.975C409.078 435.84 409.58 435.554 409.977 435.149C412.525 434.032 414.974 432.701 417.298 431.17C419.672 429.619 421.958 427.937 424.145 426.132C426.166 424.459 428.086 422.669 429.897 420.771C431.375 419.255 432.757 417.647 434.034 415.958C434.274 415.637 434.586 415.377 434.944 415.197C435.303 415.017 435.698 414.923 436.099 414.922C436.542 414.926 436.981 415.02 437.387 415.198C437.793 415.377 438.16 415.635 438.464 415.958C439.176 416.689 439.692 417.587 439.966 418.571C440.473 420.358 440.532 422.243 440.138 424.059C439.689 426.184 438.647 428.139 437.135 429.698L430.873 435.652C428.988 437.451 427 439.138 424.919 440.706C422.731 442.315 420.424 443.756 418.019 445.015C415.101 446.531 412.056 447.788 408.918 448.77C407.814 449.159 406.685 449.477 405.54 449.723C404.566 449.926 403.575 450.031 402.581 450.038C400.129 450.137 397.731 449.297 395.876 447.688C394.004 445.901 392.658 443.634 391.987 441.133C391.874 440.766 391.777 440.383 391.694 440.067C391.612 439.752 391.536 439.316 391.461 438.911C391.055 437.142 390.929 435.321 391.086 433.512C391.242 431.481 391.53 429.462 391.949 427.468C392.37 425.406 392.87 423.354 393.451 421.311C394.022 419.277 394.525 417.339 394.953 415.515C395.381 413.69 395.704 412.053 395.974 410.627C396.214 409.473 396.191 408.279 395.906 407.135C395.675 406.355 395.236 405.652 394.637 405.101C394.024 404.539 393.216 404.24 392.385 404.267C389.289 404.195 386.274 405.264 383.915 407.271C381.5 409.384 379.468 411.899 377.909 414.704C376.213 417.681 374.788 420.805 373.651 424.037C372.49 427.326 371.489 430.266 370.648 432.859C370.139 434.696 369.767 436.568 369.537 438.46C369.319 440.332 368.995 442.189 368.568 444.024C368.25 445.557 367.633 447.011 366.751 448.304C366.305 448.888 365.719 449.351 365.047 449.65C364.376 449.949 363.64 450.075 362.907 450.016C361.153 450.031 359.454 449.409 358.124 448.266C356.766 447.154 355.772 445.661 355.271 443.979C354.955 442.545 354.869 441.07 355.016 439.609C355.128 437.597 355.338 435.269 355.661 432.619C355.984 429.968 356.412 427.123 356.878 424.052C357.343 420.981 357.861 417.985 358.379 414.997C358.897 412.008 359.378 409.178 359.881 406.535C360.384 403.892 360.699 401.774 360.955 399.905Z" fill="#F2B705"/>
<path d="M496.563 397.287C496.844 396.017 497.568 394.889 498.605 394.103C499.555 393.466 500.676 393.134 501.819 393.15C503.863 393.18 505.845 393.864 507.473 395.102C509.214 396.295 510.499 398.045 511.114 400.065C511.212 400.546 511.294 401.019 511.362 401.492C511.43 401.97 511.407 402.456 511.294 402.926C510.994 404.307 510.754 405.471 510.589 406.425C510.423 407.378 510.258 408.264 510.123 409.098C509.988 409.931 509.86 410.704 509.74 411.523C509.62 412.341 509.477 413.272 509.297 414.384C509.087 415.715 508.837 417.159 508.546 418.716C508.256 420.273 508.006 421.879 507.795 423.536C507.601 425.136 507.501 426.745 507.495 428.357C507.473 429.835 507.675 431.309 508.096 432.727C508.333 433.883 509.019 434.898 510.003 435.55C510.991 436.03 512.081 436.262 513.179 436.225C514.643 436.219 516.088 435.893 517.414 435.272C518.834 434.604 520.174 433.778 521.408 432.809C522.734 431.774 523.961 430.618 525.072 429.355C526.219 428.059 527.275 426.745 528.241 425.413C529.207 424.082 530.078 422.813 530.854 421.607C531.548 420.556 532.185 419.468 532.761 418.348C533.04 417.897 533.427 417.524 533.887 417.261C534.348 416.999 534.866 416.856 535.396 416.846C535.905 416.866 536.404 416.988 536.863 417.206C537.323 417.424 537.733 417.734 538.069 418.115C538.961 419.026 539.609 420.147 539.954 421.374C540.331 422.637 540.433 423.965 540.254 425.271C540.057 426.7 539.467 428.047 538.55 429.16C536.763 431.913 534.888 434.549 532.926 437.066C531.039 439.5 528.911 441.736 526.574 443.741C524.396 445.611 521.974 447.175 519.373 448.389C516.803 449.562 514.007 450.159 511.182 450.139C507.3 450.229 503.491 449.071 500.317 446.835C497.244 444.642 494.991 441.214 493.559 436.548C492.838 434.232 492.441 431.826 492.381 429.4C492.334 427.131 492.442 424.86 492.704 422.605C492.959 420.408 493.292 418.29 493.702 416.253C494.111 414.322 494.412 412.369 494.603 410.404C494.656 409.713 494.776 408.655 494.986 407.228C495.196 405.801 495.429 404.33 495.699 402.851C495.94 401.101 496.232 399.217 496.563 397.287ZM499.611 379.409C499.238 378.194 499.068 376.926 499.108 375.655C499.136 374.426 499.441 373.22 500.002 372.126C500.574 371.041 501.434 370.134 502.487 369.506C503.815 368.758 505.327 368.399 506.849 368.47C509.853 368.47 512.12 369.065 513.652 370.257C515.157 371.381 516.26 372.961 516.798 374.762C517.119 375.843 517.266 376.968 517.233 378.095C517.242 379.259 517.001 380.411 516.528 381.474C516.044 382.536 515.261 383.433 514.275 384.057C513.044 384.801 511.62 385.162 510.183 385.093C506.969 385.093 504.572 384.575 502.99 383.539C501.438 382.573 500.242 381.129 499.581 379.424L499.611 379.409Z" fill="#F2B705"/>
<path d="M600.472 430.341C597.737 433.202 594.557 435.603 591.057 437.451C587.316 439.258 583.196 440.143 579.043 440.034C577.42 440.021 575.811 439.723 574.29 439.155C572.027 438.278 569.826 437.244 567.706 436.062C565.703 440.662 563.358 444.166 560.67 446.574C558.023 448.939 554.579 450.215 551.029 450.148C549.159 450.132 547.304 449.795 545.548 449.149C543.637 448.457 541.859 447.441 540.292 446.146C538.562 444.729 537.045 443.07 535.787 441.22C534.371 439.121 533.288 436.817 532.574 434.388C531.566 431.029 530.865 427.586 530.479 424.101C530.054 420.417 529.803 416.826 529.728 413.327C529.653 409.828 529.633 406.597 529.668 403.633C529.713 400.667 529.758 398.31 529.788 396.56C530.149 394.338 530.962 392.731 532.228 391.74C533.399 390.783 534.861 390.253 536.373 390.238C537.103 390.253 537.826 390.375 538.52 390.599C539.289 390.839 540.025 391.172 540.713 391.59C541.397 392.003 542.021 392.508 542.568 393.091C543.078 393.636 543.46 394.287 543.686 394.999C543.858 395.479 543.91 395.995 543.836 396.5C543.836 399.043 543.769 401.811 543.634 404.805C543.499 407.798 543.423 410.801 543.408 413.815C543.408 416.818 543.524 419.771 543.754 422.675C543.957 425.354 544.443 428.004 545.203 430.581C545.367 431.095 545.568 431.597 545.804 432.083C546.096 432.691 546.404 433.276 546.727 433.832C547.026 434.347 547.384 434.826 547.793 435.259C548.046 435.587 548.419 435.803 548.829 435.859C550.166 435.859 551.427 435.108 552.584 433.554C553.997 431.586 555.16 429.45 556.045 427.195C557.27 425.142 558.222 422.939 558.876 420.64C559.627 418.137 560.28 415.554 560.835 412.891C561.391 410.228 561.909 407.62 562.39 405.067C562.863 402.499 563.403 400.194 563.996 398.152C564.455 396.42 565.158 394.761 566.084 393.227C566.383 392.672 566.825 392.208 567.363 391.881C567.902 391.553 568.517 391.375 569.147 391.365C570.103 391.327 571.055 391.495 571.94 391.858C572.825 392.22 573.621 392.769 574.275 393.467C575.598 394.91 576.573 396.636 577.129 398.513C577.773 400.485 578.053 402.559 577.955 404.632C577.804 406.584 577.444 408.515 576.881 410.391C576.295 412.373 575.567 414.573 574.681 416.983C573.795 419.393 572.901 422.239 572 425.61C572.583 426.164 573.271 426.597 574.022 426.883C574.773 427.169 575.574 427.303 576.378 427.277C578.249 427.265 580.112 427.012 581.919 426.526C583.753 426.048 585.528 425.368 587.212 424.499C588.932 423.599 590.559 422.533 592.07 421.316C593.631 420.072 595.087 418.703 596.425 417.223C596.977 416.778 597.661 416.527 598.37 416.51C598.88 416.532 599.379 416.656 599.84 416.876C600.301 417.095 600.712 417.405 601.05 417.787C601.937 418.697 602.583 419.814 602.928 421.038C603.37 422.548 603.432 424.145 603.108 425.685C602.765 427.485 601.839 429.121 600.472 430.341Z" fill="#F2B705"/>
<path d="M617.931 390.289C622.21 390.289 625.714 391.35 628.442 393.473C631.287 395.713 633.342 398.804 634.307 402.295C634.984 404.551 635.131 406.933 634.734 409.255C634.199 412.004 632.956 414.566 631.13 416.689C628.589 419.678 625.618 422.274 622.316 424.392C617.548 427.497 612.497 430.144 607.231 432.299C607.969 433.852 609.195 435.12 610.723 435.91C612.493 436.825 614.467 437.277 616.459 437.224C618.925 437.21 621.377 436.848 623.742 436.15C626.215 435.442 628.624 434.525 630.943 433.41C633.255 432.299 635.478 431.095 637.61 429.798C639.743 428.502 641.647 427.27 643.324 426.104C645.001 424.933 646.393 423.932 647.499 423.101C648.216 422.52 648.969 421.983 649.751 421.494C650.061 421.214 650.444 421.029 650.855 420.961C651.194 420.917 651.535 420.892 651.876 420.886C652.463 420.879 653.041 421.029 653.551 421.321C654.047 421.605 654.504 421.954 654.91 422.357C655.297 422.727 655.623 423.155 655.878 423.626C656.082 423.996 656.253 424.383 656.389 424.783C656.549 425.342 656.672 425.911 656.757 426.487C656.825 427.268 656.661 428.052 656.284 428.74C655.676 429.486 655.029 430.201 654.346 430.879C653.235 432.051 651.764 433.425 649.931 435.017C647.838 436.805 645.655 438.486 643.392 440.055C640.766 441.892 638.005 443.528 635.132 444.95C632.061 446.469 628.856 447.703 625.559 448.637C622.143 449.629 618.605 450.135 615.047 450.138C612.024 450.153 609.031 449.531 606.263 448.314C603.483 447.084 600.916 445.421 598.657 443.388C596.328 441.298 594.306 438.889 592.65 436.233C590.974 433.587 589.661 430.728 588.746 427.733C588.024 425.298 587.692 422.764 587.762 420.225C587.811 417.427 588.24 414.648 589.038 411.966C589.883 409.132 591.095 406.421 592.642 403.902C595.939 398.46 600.992 394.304 606.968 392.121C610.481 390.85 614.196 390.23 617.931 390.289ZM618.464 401.259C618.217 401.206 617.965 401.178 617.713 401.176H617.022C615.239 401.136 613.476 401.547 611.894 402.37C610.44 403.147 609.162 404.215 608.14 405.509C607.103 406.843 606.28 408.33 605.7 409.916C605.103 411.514 604.601 413.146 604.198 414.804C603.846 416.338 603.595 417.893 603.447 419.459C603.312 420.961 603.237 422.185 603.237 423.213C604.828 422.207 606.367 421.119 607.847 419.955C609.409 418.738 610.85 417.567 612.224 416.456C613.598 415.345 614.762 414.338 615.746 413.452C616.729 412.566 617.435 411.951 617.856 411.628C619.725 410.126 620.859 408.752 621.37 407.453C621.835 406.389 621.936 405.201 621.655 404.074C621.436 403.313 620.975 402.643 620.341 402.167C619.79 401.717 619.138 401.408 618.441 401.266L618.464 401.259Z" fill="#F2B705"/>
<path d="M492.06 411.624C492.743 412.191 493.29 412.905 493.66 413.712C494.031 414.519 494.215 415.399 494.2 416.286C494.173 417.462 493.891 418.617 493.374 419.673C491.873 422.676 488.682 425.161 486.024 427.181C483.366 429.201 479.266 430.184 476.052 430.184C473.645 430.243 471.306 429.375 469.52 427.759C468.624 426.93 467.921 425.915 467.459 424.785C466.997 423.656 466.789 422.439 466.847 421.219C466.851 419.561 466.941 417.905 467.117 416.256C467.262 415.369 467.355 414.474 467.395 413.576C467.433 413.046 467.26 412.523 466.915 412.119C466.763 411.963 466.58 411.84 466.379 411.758C466.177 411.675 465.961 411.634 465.743 411.639C464.462 411.639 462.71 412.99 460.487 415.693C457.905 419.015 455.692 422.607 453.888 426.408C451.671 430.929 449.889 435.65 448.564 440.508C447.563 444.393 446.417 446.976 445.125 448.257C443.834 449.539 441.724 450.184 438.796 450.194C437.219 450.267 435.659 449.842 434.338 448.978C433.018 448.114 432.002 446.855 431.438 445.381C430.001 442.133 429.283 436.945 429.283 429.817C429.226 419.626 430.946 409.503 434.366 399.903C435.045 397.747 436.49 395.915 438.428 394.752C440.305 393.661 442.94 393.116 446.334 393.116C447.648 393.022 448.965 393.23 450.186 393.724C450.568 393.964 450.874 394.307 451.069 394.713C451.264 395.12 451.341 395.573 451.29 396.021C451.29 397.323 450.601 400.231 449.225 404.746C448.301 407.96 447.573 410.753 447.017 413.223C446.387 416.182 445.928 419.176 445.643 422.188C448.647 415.245 452.038 409.591 455.817 405.227C459.597 400.862 463.266 397.756 466.825 395.909C470.394 394.047 473.647 393.116 476.585 393.116C479.233 393.116 481.273 393.784 482.705 395.12C484.136 396.457 484.85 398.419 484.845 401.007C484.845 402.539 484.344 405.444 483.343 409.724H484.589C486.594 409.724 490.634 410.37 492.06 411.624Z" fill="#F2B705"/>
<path d="M710.36 411.54C711.041 412.109 711.587 412.822 711.957 413.629C712.328 414.436 712.513 415.315 712.499 416.203C712.472 417.38 712.193 418.537 711.681 419.597C710.179 422.6 706.981 425.093 704.323 427.105C701.665 429.117 697.565 430.168 694.367 430.168C691.959 430.227 689.62 429.359 687.834 427.743C686.938 426.915 686.233 425.9 685.77 424.77C685.307 423.64 685.097 422.423 685.154 421.203C685.16 419.545 685.253 417.889 685.432 416.24C685.573 415.355 685.666 414.463 685.71 413.567C685.729 413.304 685.695 413.04 685.612 412.79C685.528 412.54 685.395 412.309 685.221 412.111C685.07 411.955 684.889 411.832 684.689 411.748C684.489 411.664 684.274 411.622 684.058 411.623C682.771 411.623 681.019 412.977 678.802 415.685C676.218 419.004 674.003 422.594 672.194 426.392C669.979 430.899 668.187 435.602 666.841 440.44C665.84 444.314 664.693 446.9 663.402 448.196C662.111 449.493 660.001 450.138 657.072 450.133C655.495 450.206 653.935 449.779 652.614 448.913C651.292 448.048 650.278 446.788 649.714 445.313C648.298 442.099 647.584 436.924 647.574 429.786C647.524 419.592 649.246 409.468 652.665 399.865C653.357 397.696 654.825 395.86 656.787 394.706C658.669 393.61 661.307 393.074 664.701 393.1C666.011 393.008 667.325 393.213 668.545 393.7C668.928 393.941 669.235 394.285 669.43 394.693C669.626 395.101 669.701 395.556 669.649 396.005C669.649 397.297 668.963 400.202 667.592 404.723C666.666 407.936 665.932 410.762 665.392 413.2C664.755 416.158 664.294 419.152 664.01 422.165C667.014 415.222 670.405 409.568 674.184 405.203C677.963 400.838 681.63 397.732 685.184 395.885C688.758 394.023 692.012 393.095 694.945 393.1C697.625 393.1 699.645 393.76 701.064 395.097C702.483 396.433 703.212 398.385 703.212 400.983C703.212 402.515 702.711 405.421 701.71 409.701H702.941C704.886 409.663 708.933 410.286 710.36 411.54Z" fill="#F2B705"/>
<path d="M245.705 390C238.164 390.002 230.933 392.998 225.601 398.33C220.269 403.662 217.272 410.894 217.271 418.434C217.272 420.231 217.441 422.023 217.774 423.788L221.453 421.272C227.91 416.843 238.384 416.843 244.841 421.272L248.693 423.915L250.788 425.35C256.607 429.336 266.038 429.336 271.849 425.35L273.561 424.178C274.408 420.046 274.326 415.777 273.32 411.68C272.314 407.584 270.41 403.762 267.745 400.492C265.08 397.222 261.721 394.586 257.912 392.773C254.103 390.961 249.938 390.019 245.72 390.015L245.705 390Z" fill="#F2B705"/>
<path d="M261.687 435.516C257.626 435.593 253.634 434.459 250.221 432.257L244.282 428.188C241.049 426.204 237.33 425.154 233.538 425.154C229.745 425.154 226.026 426.204 222.793 428.188L218.956 430.816C218.775 430.939 218.572 431.026 218.357 431.071C218.143 431.117 217.921 431.119 217.706 431.078C217.491 431.038 217.285 430.956 217.102 430.836C216.918 430.716 216.76 430.561 216.636 430.38C216.512 430.199 216.426 429.996 216.38 429.781C216.335 429.567 216.333 429.345 216.373 429.13C216.414 428.915 216.496 428.709 216.616 428.526C216.736 428.342 216.891 428.184 217.072 428.06L220.908 425.432C224.7 423.077 229.074 421.828 233.538 421.828C238.001 421.828 242.375 423.077 246.167 425.432L252.106 429.502C254.988 431.269 258.302 432.204 261.683 432.204C265.063 432.204 268.378 431.269 271.26 429.502L273.512 427.962C273.693 427.839 273.897 427.752 274.111 427.707C274.326 427.662 274.547 427.659 274.762 427.7C274.978 427.74 275.183 427.823 275.367 427.942C275.55 428.062 275.709 428.217 275.832 428.398C275.956 428.579 276.043 428.782 276.088 428.997C276.133 429.211 276.136 429.433 276.095 429.648C276.055 429.864 275.972 430.069 275.852 430.253C275.733 430.436 275.578 430.594 275.397 430.718L273.144 432.257C269.732 434.453 265.744 435.587 261.687 435.516Z" fill="#53CBC8"/>
<path d="M233.418 447.466V431.398C233.404 431.059 233.416 430.721 233.455 430.384C233.507 429.942 233.718 429.534 234.051 429.238C234.383 428.942 234.812 428.778 235.257 428.777C235.688 428.791 236.099 428.961 236.411 429.258C236.724 429.554 236.917 429.955 236.954 430.384C237.022 430.942 237.042 431.505 237.014 432.066V464.104C237.023 464.353 236.982 464.602 236.894 464.835C236.807 465.068 236.673 465.281 236.502 465.462C236.331 465.643 236.125 465.788 235.897 465.889C235.669 465.99 235.424 466.044 235.174 466.049C234.925 466.035 234.681 465.971 234.457 465.86C234.233 465.749 234.034 465.593 233.872 465.403C233.709 465.213 233.588 464.992 233.513 464.753C233.439 464.514 233.414 464.263 233.44 464.014V453.33L233.418 447.466Z" fill="#53CBC8"/>
<path d="M230.042 439.376V447.357C230.042 448.724 229.291 449.61 228.278 449.61C227.264 449.61 226.461 448.656 226.453 447.357V431.38C226.453 429.983 227.272 429.037 228.33 429.127C229.389 429.217 230.02 430.021 230.027 431.425C230.042 434.053 230.042 436.711 230.042 439.376Z" fill="#53CBC8"/>
<path d="M240.409 439.358V433.757C240.409 432.458 241.1 431.617 242.128 431.617C242.388 431.629 242.642 431.694 242.876 431.807C243.111 431.92 243.319 432.079 243.49 432.274C243.662 432.47 243.791 432.698 243.872 432.945C243.953 433.192 243.983 433.453 243.96 433.712C243.995 437.526 243.995 441.343 243.96 445.162C243.96 446.461 243.21 447.25 242.136 447.235C241.062 447.22 240.409 446.424 240.401 445.095V439.366L240.409 439.358Z" fill="#53CBC8"/>
<path d="M219.488 440.502V434.893C219.488 433.587 220.179 432.746 221.207 432.746C221.467 432.758 221.721 432.823 221.956 432.936C222.19 433.049 222.398 433.208 222.57 433.403C222.741 433.599 222.871 433.827 222.951 434.074C223.032 434.321 223.062 434.582 223.039 434.841C223.075 438.66 223.075 442.479 223.039 446.299C223.039 447.598 222.289 448.379 221.222 448.371C220.156 448.364 219.488 447.56 219.48 446.224V440.502H219.488Z" fill="#53CBC8"/>
<path d="M250.898 437.522C250.898 436.548 250.108 435.758 249.134 435.758C248.159 435.758 247.369 436.548 247.369 437.522V440.571C247.369 441.545 248.159 442.335 249.134 442.335C250.108 442.335 250.898 441.545 250.898 440.571V437.522Z" fill="#53CBC8"/>
<path d="M257.879 440.194C257.879 439.22 257.089 438.43 256.114 438.43C255.14 438.43 254.35 439.22 254.35 440.194V457.306C254.35 458.28 255.14 459.07 256.114 459.07C257.089 459.07 257.879 458.28 257.879 457.306V440.194Z" fill="#53CBC8"/>
<path d="M264.82 440.85C264.82 439.876 264.03 439.086 263.055 439.086C262.081 439.086 261.291 439.876 261.291 440.85V455.394C261.291 456.369 262.081 457.159 263.055 457.159C264.03 457.159 264.82 456.369 264.82 455.394V440.85Z" fill="#53CBC8"/>
<path d="M271.844 439.182C271.844 438.208 271.054 437.418 270.08 437.418C269.105 437.418 268.315 438.208 268.315 439.182V445.452C268.315 446.426 269.105 447.216 270.08 447.216C271.054 447.216 271.844 446.426 271.844 445.452V439.182Z" fill="#53CBC8"/>
</svg>
