<svg width="800" height="800" viewBox="0 0 800 800" fill="none" xmlns="http://www.w3.org/2000/svg">
<rect width="800" height="800" fill="white"/>
<path d="M400.37 353.947V446.053C400.365 446.4 400.225 446.733 399.979 446.978C399.734 447.224 399.402 447.364 399.054 447.369H389.475C387.276 447.37 385.112 446.82 383.181 445.769C381.25 444.718 379.614 443.199 378.422 441.351L334.948 374.158L336.44 407.719V446.053C336.435 446.4 336.295 446.733 336.049 446.978C335.803 447.224 335.471 447.364 335.124 447.369H322.457C322.11 447.364 321.778 447.224 321.532 446.978C321.286 446.733 321.146 446.4 321.141 446.053V353.947C321.146 353.6 321.286 353.268 321.532 353.022C321.778 352.776 322.11 352.636 322.457 352.631H331.983C334.18 352.633 336.341 353.182 338.271 354.23C340.201 355.278 341.839 356.79 343.036 358.631L386.51 425.72L385.159 392.281V353.947C385.159 353.598 385.298 353.264 385.545 353.017C385.791 352.77 386.126 352.631 386.475 352.631H399.142C399.474 352.658 399.784 352.807 400.011 353.051C400.239 353.294 400.366 353.614 400.37 353.947Z" fill="black"/>
<path d="M529.827 447.369H516.423C516.214 447.367 516.008 447.315 515.822 447.217C515.637 447.119 515.478 446.979 515.358 446.807C515.237 446.636 515.16 446.438 515.132 446.23C515.103 446.023 515.125 445.812 515.195 445.614L550.704 353.895C550.856 353.51 551.123 353.183 551.468 352.957C551.814 352.731 552.221 352.617 552.634 352.631H569.423C569.821 352.635 570.209 352.757 570.537 352.982C570.865 353.207 571.119 353.525 571.265 353.895L606.669 445.614C606.739 445.812 606.76 446.023 606.732 446.23C606.704 446.438 606.627 446.636 606.506 446.807C606.386 446.979 606.227 447.119 606.042 447.217C605.856 447.315 605.65 447.367 605.441 447.369H592.037C591.769 447.37 591.507 447.29 591.285 447.14C591.062 446.99 590.891 446.776 590.792 446.526L562.178 371.088C562.085 370.834 561.917 370.614 561.696 370.459C561.475 370.304 561.211 370.221 560.941 370.221C560.67 370.221 560.407 370.304 560.186 370.459C559.964 370.614 559.796 370.834 559.704 371.088L531.09 446.526C530.99 446.779 530.815 446.994 530.59 447.145C530.364 447.295 530.098 447.373 529.827 447.369Z" fill="black"/>
<path d="M699.722 445.246L673.09 411.228C688.126 408.386 696.915 398.246 696.915 382.684C696.915 364.807 685.283 352.631 664.704 352.631H627.564C627.043 352.631 626.543 352.838 626.174 353.207C625.806 353.575 625.599 354.075 625.599 354.596C625.599 356.255 625.926 357.898 626.56 359.43C627.195 360.963 628.126 362.355 629.299 363.528C630.472 364.701 631.864 365.632 633.397 366.267C634.929 366.901 636.572 367.228 638.231 367.228H663.16C675.599 367.228 681.564 373.596 681.564 382.789C681.564 391.983 675.739 398.579 663.16 398.579H627.564C627.041 398.584 626.541 398.795 626.173 399.166C625.805 399.537 625.599 400.039 625.599 400.562V446.176C625.599 446.525 625.737 446.859 625.984 447.106C626.231 447.353 626.566 447.492 626.915 447.492H639.581C639.929 447.487 640.261 447.347 640.507 447.101C640.753 446.855 640.893 446.523 640.897 446.176V412.053H655.511L678.617 442.211C679.854 443.825 681.448 445.13 683.275 446.025C685.101 446.92 687.109 447.38 689.143 447.369H698.757C698.997 447.355 699.229 447.277 699.427 447.141C699.625 447.005 699.783 446.818 699.882 446.599C699.982 446.381 700.019 446.139 699.991 445.9C699.963 445.662 699.87 445.435 699.722 445.246Z" fill="black"/>
<path d="M489.773 352.631H431.001C430.536 352.631 430.09 352.816 429.761 353.145C429.432 353.474 429.247 353.921 429.247 354.386C429.247 357.796 430.602 361.067 433.013 363.479C435.425 365.891 438.696 367.246 442.107 367.246H489.773C489.947 367.248 490.119 367.216 490.28 367.15C490.44 367.085 490.586 366.988 490.709 366.865C490.832 366.743 490.929 366.597 490.994 366.436C491.059 366.275 491.092 366.103 491.089 365.93V353.947C491.089 353.598 490.951 353.264 490.704 353.017C490.457 352.77 490.122 352.631 489.773 352.631ZM489.773 432.755H445.914C445.566 432.75 445.234 432.61 444.988 432.364C444.742 432.118 444.602 431.786 444.598 431.439V407.684C444.598 407.335 444.736 407.001 444.983 406.754C445.23 406.507 445.565 406.369 445.914 406.369H486.458C486.807 406.369 487.141 406.23 487.388 405.983C487.635 405.736 487.773 405.402 487.773 405.053V392.983C487.773 392.634 487.635 392.299 487.388 392.052C487.141 391.805 486.807 391.667 486.458 391.667H431.212C430.689 391.671 430.189 391.882 429.821 392.254C429.453 392.625 429.247 393.126 429.247 393.649V445.334C429.247 445.855 429.454 446.355 429.822 446.723C430.191 447.092 430.691 447.299 431.212 447.299H489.773C490.122 447.299 490.457 447.16 490.704 446.913C490.951 446.666 491.089 446.332 491.089 445.983V434C491.076 433.662 490.93 433.343 490.685 433.11C490.439 432.877 490.112 432.75 489.773 432.755Z" fill="black"/>
<path d="M226.737 329.07L193.72 378.07C193.185 378.777 192.937 379.661 193.027 380.543C193.117 381.426 193.538 382.241 194.205 382.826C194.872 383.41 195.735 383.721 196.622 383.694C197.508 383.668 198.352 383.307 198.983 382.684L231.474 354.614C231.662 354.442 231.895 354.329 232.146 354.289C232.397 354.249 232.654 354.283 232.886 354.388C233.118 354.492 233.314 354.663 233.449 354.877C233.585 355.092 233.655 355.342 233.65 355.596V443.825C233.647 444.093 233.563 444.353 233.408 444.572C233.253 444.791 233.035 444.957 232.784 445.049C232.532 445.14 232.258 445.153 231.999 445.084C231.74 445.016 231.508 444.871 231.334 444.667L133.088 327.123C131.519 325.236 129.557 323.714 127.339 322.666C125.12 321.617 122.699 321.067 120.246 321.052H116.825C112.362 321.052 108.083 322.825 104.928 325.98C101.773 329.136 100 333.415 100 337.877V462.123C100 466.585 101.773 470.865 104.928 474.02C108.083 477.175 112.362 478.948 116.825 478.948C119.7 478.948 122.527 478.21 125.036 476.807C127.545 475.403 129.653 473.38 131.158 470.93L164.176 421.93C164.711 421.223 164.958 420.339 164.868 419.457C164.778 418.575 164.357 417.759 163.69 417.175C163.024 416.59 162.16 416.28 161.274 416.306C160.387 416.332 159.544 416.693 158.913 417.316L126.421 445.386C126.234 445.558 126 445.671 125.749 445.711C125.498 445.752 125.241 445.717 125.009 445.613C124.778 445.508 124.582 445.338 124.446 445.123C124.31 444.908 124.241 444.658 124.246 444.404V356.263C124.248 355.995 124.333 355.735 124.487 355.516C124.642 355.297 124.86 355.131 125.112 355.04C125.364 354.948 125.637 354.935 125.896 355.004C126.155 355.072 126.387 355.217 126.562 355.421L224.808 472.965C226.388 474.835 228.357 476.338 230.579 477.368C232.8 478.399 235.219 478.932 237.667 478.93H241.176C243.385 478.93 245.573 478.495 247.615 477.65C249.656 476.804 251.511 475.565 253.073 474.003C254.635 472.44 255.874 470.585 256.72 468.544C257.566 466.503 258.001 464.315 258.001 462.106V337.877C258.001 335.659 257.562 333.462 256.71 331.414C255.858 329.366 254.609 327.507 253.036 325.943C251.462 324.379 249.595 323.142 247.542 322.303C245.488 321.464 243.289 321.039 241.071 321.052C238.196 321.053 235.369 321.79 232.859 323.194C230.35 324.597 228.242 326.62 226.737 329.07Z" fill="black"/>
</svg>
