<svg width="800" height="800" viewBox="0 0 800 800" fill="none" xmlns="http://www.w3.org/2000/svg">
<rect width="800" height="800" fill="white"/>
<g clip-path="url(#clip0_6472_25258)">
<path d="M138.387 437.476C129.753 437.476 122.678 435.452 117.163 431.405C111.721 427.286 109 421.432 109 413.843C109 412.253 109.181 410.302 109.544 407.989C110.488 402.786 111.83 396.534 113.571 389.234C118.506 369.359 131.24 359.422 151.775 359.422C157.362 359.422 162.369 360.361 166.795 362.241C171.222 364.047 174.704 366.794 177.244 370.48C179.784 374.093 181.054 378.43 181.054 383.489C181.054 385.006 180.872 386.922 180.51 389.234C179.421 395.667 178.115 401.918 176.591 407.989C174.051 417.89 169.661 425.298 163.421 430.213C157.181 435.055 148.836 437.476 138.387 437.476ZM139.911 421.865C143.975 421.865 147.421 420.673 150.251 418.288C153.154 415.903 155.222 412.253 156.455 407.338C158.124 400.545 159.394 394.619 160.265 389.56C160.555 388.042 160.7 386.488 160.7 384.898C160.7 378.321 157.253 375.033 150.36 375.033C146.297 375.033 142.814 376.225 139.911 378.61C137.081 380.995 135.05 384.645 133.816 389.56C132.51 394.402 131.204 400.328 129.898 407.338C129.607 408.784 129.462 410.302 129.462 411.892C129.462 418.541 132.945 421.865 139.911 421.865Z" fill="#FF0420"/>
<path d="M192.098 436.392C191.299 436.392 190.683 436.139 190.247 435.633C189.884 435.055 189.775 434.404 189.921 433.682L204.941 363.216C205.086 362.421 205.485 361.771 206.138 361.265C206.791 360.759 207.481 360.506 208.206 360.506H237.158C245.212 360.506 251.67 362.168 256.532 365.493C261.466 368.817 263.933 373.623 263.933 379.911C263.933 381.718 263.716 383.597 263.28 385.548C261.466 393.86 257.802 400.003 252.287 403.978C246.845 407.953 239.371 409.94 229.866 409.94H215.172L210.165 433.682C210.02 434.477 209.621 435.127 208.968 435.633C208.315 436.139 207.626 436.392 206.9 436.392H192.098ZM230.628 394.98C233.675 394.98 236.324 394.149 238.573 392.486C240.895 390.824 242.419 388.439 243.144 385.331C243.362 384.103 243.471 383.019 243.471 382.079C243.471 379.983 242.854 378.393 241.621 377.309C240.387 376.153 238.283 375.575 235.308 375.575H222.247L218.111 394.98H230.628Z" fill="#FF0420"/>
<path d="M288.458 436.392C287.66 436.392 287.043 436.139 286.607 435.633C286.172 435.055 286.027 434.404 286.172 433.682L298.254 377.526H278.88C278.081 377.526 277.464 377.273 277.029 376.767C276.666 376.189 276.558 375.539 276.703 374.816L279.206 363.216C279.351 362.421 279.75 361.771 280.403 361.265C281.056 360.759 281.746 360.506 282.471 360.506H341.029C341.827 360.506 342.443 360.759 342.879 361.265C343.169 361.698 343.314 362.132 343.314 362.566C343.314 362.782 343.278 362.999 343.205 363.216L340.702 374.816C340.557 375.611 340.158 376.261 339.505 376.767C338.924 377.273 338.235 377.526 337.437 377.526H318.172L306.09 433.682C305.945 434.477 305.546 435.127 304.893 435.633C304.24 436.139 303.551 436.392 302.825 436.392H288.458Z" fill="#FF0420"/>
<path d="M346.09 436.392C345.292 436.392 344.675 436.139 344.24 435.633C343.804 435.055 343.659 434.404 343.804 433.682L358.934 363.216C359.079 362.421 359.478 361.771 360.131 361.265C360.784 360.759 361.473 360.506 362.199 360.506H376.893C377.691 360.506 378.308 360.759 378.743 361.265C379.033 361.698 379.178 362.132 379.178 362.566C379.178 362.782 379.142 362.999 379.069 363.216L364.049 433.682C363.904 434.477 363.505 435.127 362.852 435.633C362.199 436.139 361.51 436.392 360.784 436.392H346.09Z" fill="#FF0420"/>
<path d="M387.534 436.392C386.736 436.392 386.119 436.139 385.684 435.633C385.249 435.127 385.104 434.477 385.249 433.682L400.269 363.216C400.414 362.421 400.813 361.771 401.466 361.265C402.119 360.759 402.845 360.506 403.643 360.506H415.398C417.14 360.506 418.264 361.301 418.772 362.891L430.636 397.04L457.085 362.891C457.447 362.313 457.955 361.771 458.608 361.265C459.334 360.759 460.205 360.506 461.221 360.506H473.085C473.883 360.506 474.499 360.759 474.935 361.265C475.225 361.698 475.37 362.132 475.37 362.566C475.37 362.782 475.334 362.999 475.261 363.216L460.241 433.682C460.096 434.477 459.697 435.127 459.044 435.633C458.391 436.139 457.702 436.392 456.976 436.392H443.806C443.008 436.392 442.391 436.139 441.955 435.633C441.593 435.055 441.484 434.404 441.629 433.682L450.119 393.679L433.466 415.686C432.74 416.481 432.051 417.095 431.398 417.529C430.745 417.963 429.983 418.179 429.112 418.179H423.452C421.929 418.179 420.876 417.348 420.296 415.686L412.568 392.703L403.861 433.682C403.716 434.477 403.316 435.127 402.663 435.633C402.01 436.139 401.321 436.392 400.595 436.392H387.534Z" fill="#FF0420"/>
<path d="M483.608 436.392C482.809 436.392 482.193 436.139 481.757 435.633C481.322 435.055 481.177 434.404 481.322 433.682L496.451 363.216C496.596 362.421 496.995 361.771 497.648 361.265C498.3 360.759 498.99 360.506 499.716 360.506H514.409C515.209 360.506 515.826 360.759 516.26 361.265C516.551 361.698 516.695 362.132 516.695 362.566C516.695 362.782 516.66 362.999 516.586 363.216L501.567 433.682C501.423 434.477 501.023 435.127 500.368 435.633C499.716 436.139 499.025 436.392 498.3 436.392H483.608Z" fill="#FF0420"/>
<path d="M551.937 437.476C545.551 437.476 540.072 436.609 535.502 434.874C531.001 433.14 527.59 430.827 525.27 427.936C523.02 425.045 521.895 421.829 521.895 418.288C521.895 417.71 521.968 416.842 522.112 415.686C522.259 415.035 522.55 414.494 522.985 414.06C523.493 413.626 524.071 413.41 524.727 413.41H538.656C539.529 413.41 540.181 413.554 540.616 413.843C541.124 414.132 541.632 414.638 542.14 415.361C542.649 417.24 543.809 418.794 545.625 420.022C547.51 421.251 550.087 421.865 553.35 421.865C557.486 421.865 560.826 421.215 563.364 419.914C565.905 418.613 567.43 416.842 567.935 414.602C568.008 414.313 568.043 413.879 568.043 413.301C568.043 411.494 566.922 410.085 564.672 409.073C562.421 407.989 558.285 406.724 552.263 405.279C545.225 403.761 539.89 401.484 536.262 398.449C532.634 395.341 530.822 391.294 530.822 386.307C530.822 384.573 531.04 382.802 531.474 380.995C532.925 374.274 536.518 368.998 542.249 365.168C548.053 361.337 555.526 359.422 564.672 359.422C570.185 359.422 575.085 360.398 579.365 362.349C583.645 364.3 586.947 366.794 589.271 369.829C591.665 372.792 592.86 375.755 592.86 378.719C592.86 379.586 592.825 380.2 592.751 380.562C592.608 381.212 592.282 381.754 591.773 382.188C591.339 382.621 590.792 382.838 590.14 382.838H575.555C573.96 382.838 572.87 382.224 572.292 380.995C572.218 379.333 571.345 377.924 569.677 376.767C568.008 375.611 565.832 375.033 563.147 375.033C559.953 375.033 557.307 375.611 555.2 376.767C553.171 377.924 551.899 379.622 551.394 381.862C551.32 382.224 551.282 382.694 551.282 383.272C551.282 385.006 552.298 386.452 554.331 387.608C556.434 388.692 560.101 389.812 565.323 390.969C573.452 392.559 579.365 394.835 583.067 397.799C586.838 400.762 588.724 404.7 588.724 409.615C588.724 411.277 588.506 413.084 588.072 415.035C586.477 422.407 582.593 428.009 576.424 431.839C570.332 435.597 562.169 437.476 551.937 437.476Z" fill="#FF0420"/>
<path d="M603.165 436.392C602.366 436.392 601.749 436.139 601.314 435.633C600.88 435.127 600.732 434.477 600.88 433.682L615.899 363.216C616.043 362.421 616.442 361.771 617.098 361.265C617.75 360.759 618.475 360.506 619.275 360.506H631.027C632.769 360.506 633.895 361.301 634.403 362.891L646.268 397.04L672.714 362.891C673.079 362.313 673.587 361.771 674.239 361.265C674.964 360.759 675.833 360.506 676.85 360.506H688.715C689.514 360.506 690.131 360.759 690.566 361.265C690.857 361.698 691 362.132 691 362.566C691 362.782 690.965 362.999 690.892 363.216L675.872 433.682C675.725 434.477 675.325 435.127 674.673 435.633C674.022 436.139 673.331 436.392 672.605 436.392H659.437C658.637 436.392 658.02 436.139 657.586 435.633C657.221 435.055 657.112 434.404 657.26 433.682L665.749 393.679L649.096 415.686C648.371 416.481 647.68 417.095 647.028 417.529C646.377 417.963 645.612 418.179 644.743 418.179H639.082C637.557 418.179 636.506 417.348 635.928 415.686L628.199 392.703L619.492 433.682C619.345 434.477 618.945 435.127 618.293 435.633C617.641 436.139 616.951 436.392 616.225 436.392H603.165Z" fill="#FF0420"/>
</g>
<defs>
<clipPath id="clip0_6472_25258">
<rect width="582" height="81.1554" fill="white" transform="translate(109 359.422)"/>
</clipPath>
</defs>
</svg>
