<svg width="800" height="800" viewBox="0 0 800 800" fill="none" xmlns="http://www.w3.org/2000/svg">
<rect width="800" height="800" fill="white"/>
<path d="M240.497 388.818C234.916 388.749 229.4 390.018 224.41 392.518C219.42 395.019 215.102 398.678 211.816 403.19C204.161 412.631 200.079 424.467 200.286 436.619C199.901 444.435 202.485 452.107 207.521 458.097C209.904 460.805 212.866 462.943 216.186 464.352C219.507 465.76 223.102 466.405 226.706 466.236C232.03 466.232 237.281 465.007 242.057 462.655C246.834 460.304 251.007 456.888 254.256 452.671C262.425 442.871 266.833 430.481 266.691 417.725C267.018 410.246 264.872 402.868 260.587 396.731C256.291 391.531 249.508 388.818 240.497 388.818ZM240.949 446.179C239.15 448.017 237.005 449.483 234.639 450.491C232.272 451.5 229.73 452.032 227.158 452.058C225.435 452.152 223.715 451.832 222.141 451.124C220.567 450.415 219.187 449.34 218.115 447.988C215.747 444.727 214.604 440.736 214.885 436.716C214.568 428.119 217.025 419.649 221.893 412.557C223.796 409.551 226.436 407.083 229.562 405.387C232.689 403.691 236.198 402.823 239.754 402.867C247.85 402.867 251.909 407.831 251.931 417.757C252.069 428.292 248.135 438.474 240.949 446.179ZM678.138 424.507C676.486 423.936 674.678 424.016 673.082 424.73C671.486 425.444 670.222 426.738 669.547 428.351C663.248 444.177 655.562 452.058 646.066 452.058C641.092 452.058 638.605 447.762 638.605 439.655C639.222 430.456 640.561 421.32 642.61 412.331L644.645 402.835H664.024C665.637 402.85 667.203 402.289 668.44 401.253C669.678 400.217 670.505 398.774 670.774 397.183C670.978 396.177 670.958 395.138 670.715 394.14C670.472 393.143 670.011 392.211 669.367 391.412C668.722 390.613 667.909 389.967 666.985 389.518C666.061 389.069 665.05 388.83 664.024 388.818H647.875L651.104 373.024C651.328 371.971 651.317 370.881 651.07 369.834C650.824 368.786 650.349 367.805 649.679 366.963C649.009 366.12 648.161 365.436 647.196 364.959C646.231 364.483 645.172 364.226 644.096 364.206C642.451 364.182 640.85 364.733 639.57 365.766C638.29 366.798 637.411 368.246 637.087 369.859L632.92 388.592H587.703C582.092 388.541 576.551 389.841 571.548 392.382C566.545 394.923 562.227 398.63 558.958 403.19C551.303 412.631 547.22 424.467 547.427 436.619C547.426 439.882 547.806 443.134 548.558 446.308C547.099 448.016 545.3 449.401 543.275 450.374C541.251 451.348 539.046 451.888 536.801 451.961C535.663 452.07 534.515 451.901 533.458 451.468C532.4 451.034 531.463 450.35 530.729 449.474C529.336 447.01 528.706 444.189 528.92 441.367C529.222 433.218 530.304 425.118 532.15 417.175L543.874 362.527C544.086 361.609 544.116 360.658 543.96 359.728C543.805 358.798 543.467 357.909 542.968 357.109C542.469 356.31 541.817 355.617 541.05 355.07C540.282 354.522 539.415 354.131 538.497 353.919C537.578 353.707 536.627 353.678 535.698 353.834C534.768 353.989 533.878 354.326 533.079 354.826C532.28 355.325 531.587 355.977 531.039 356.744C530.492 357.511 530.101 358.379 529.889 359.297L523.107 392.661C518.326 389.802 512.85 388.315 507.28 388.365C501.683 388.283 496.139 389.459 491.057 391.807C485.976 394.155 481.487 397.615 477.921 401.931C469.992 411.582 465.828 423.779 466.197 436.264C466.118 440.23 466.652 444.185 467.78 447.988C465.013 450.388 461.494 451.748 457.832 451.831C456.637 451.938 455.433 451.77 454.313 451.339C453.193 450.907 452.187 450.225 451.372 449.344C449.784 446.956 449.065 444.093 449.337 441.238C449.579 435.795 450.336 430.388 451.598 425.089C451.797 424.081 451.784 423.043 451.561 422.04C451.338 421.037 450.909 420.092 450.302 419.263C449.695 418.435 448.923 417.741 448.034 417.226C447.145 416.711 446.159 416.386 445.139 416.271C443.387 416.047 441.615 416.476 440.161 417.477C438.707 418.479 437.673 419.981 437.258 421.697C435.367 429.434 431.988 436.729 427.31 443.176C425.674 445.697 423.475 447.803 420.885 449.327C418.295 450.852 415.386 451.754 412.388 451.961C410.831 451.93 409.308 451.498 407.967 450.705C406.626 449.913 405.512 448.788 404.734 447.439C402.645 443.812 401.616 439.671 401.762 435.489C401.345 427.025 403.804 418.67 408.739 411.782C410.806 408.792 413.58 406.361 416.815 404.704C420.05 403.047 423.644 402.216 427.278 402.286C431.009 402.314 434.698 403.083 438.13 404.547C439.151 405.047 440.286 405.268 441.421 405.189C442.555 405.109 443.648 404.732 444.59 404.095C445.7 403.432 446.604 402.473 447.202 401.326C447.799 400.179 448.065 398.888 447.972 397.598C447.878 396.309 447.427 395.07 446.67 394.021C445.913 392.973 444.88 392.155 443.685 391.66C441.876 390.874 439.993 390.269 438.065 389.851C434.603 388.883 431.033 388.352 427.439 388.269C421.893 388.246 416.411 389.45 411.386 391.795C406.36 394.141 401.916 397.569 398.371 401.834C394.088 406.648 390.922 412.351 389.101 418.532C382.093 440.785 373.081 451.638 362.229 451.638C360.679 451.761 359.122 451.494 357.7 450.862C356.279 450.231 355.038 449.254 354.09 448.02C352.297 445.455 351.421 442.36 351.603 439.235C351.547 438.25 351.623 437.261 351.829 436.296C358.369 433.747 364.08 429.445 368.334 423.861C372.465 418.571 374.736 412.066 374.793 405.354C374.793 394.05 368.721 388.398 356.286 388.398C352.01 388.377 347.773 389.206 343.82 390.836C339.867 392.466 336.276 394.865 333.258 397.893L340.945 362.365C341.161 361.325 341.142 360.25 340.89 359.218C340.638 358.186 340.159 357.223 339.487 356.4C338.816 355.577 337.969 354.914 337.008 354.459C336.048 354.005 334.998 353.771 333.936 353.774C332.291 353.749 330.69 354.301 329.41 355.333C328.13 356.366 327.251 357.814 326.927 359.426L305.933 457.451C305.711 458.489 305.725 459.564 305.973 460.596C306.221 461.629 306.697 462.592 307.366 463.416C308.035 464.24 308.88 464.904 309.84 465.359C310.799 465.813 311.848 466.047 312.91 466.043C314.532 465.992 316.086 465.382 317.31 464.317C318.535 463.251 319.353 461.796 319.628 460.197L326.087 430.159C327.199 426.172 328.714 422.309 330.609 418.629C332.987 414.401 336.221 410.715 340.105 407.809C344.042 404.388 349.101 402.537 354.316 402.609C355.054 402.5 355.807 402.566 356.515 402.8C357.223 403.034 357.866 403.431 358.393 403.958C358.921 404.485 359.317 405.129 359.551 405.836C359.786 406.544 359.851 407.297 359.742 408.035C359.56 410.403 358.858 412.702 357.685 414.768C356.513 416.833 354.899 418.615 352.96 419.985C348.851 423.688 343.758 426.122 338.296 426.994C337.844 431.29 337.618 434.455 337.618 436.264C337.27 444.035 339.483 451.705 343.916 458.097C346.058 460.79 348.826 462.918 351.978 464.297C355.13 465.676 358.572 466.264 362.003 466.01C366.761 465.967 371.448 464.846 375.71 462.731C379.973 460.617 383.701 457.564 386.614 453.802L389.327 450.572C390.35 453.204 391.801 455.649 393.623 457.807C395.793 460.473 398.555 462.596 401.689 464.009C404.823 465.422 408.243 466.085 411.678 465.946C421.367 465.946 429.539 461.424 436.321 451.928C439.228 461.424 446.011 465.946 457.315 465.946C463.664 465.866 469.791 463.596 474.659 459.518C479.023 463.609 484.83 465.804 490.808 465.623C500.498 465.623 508.637 461.101 515.42 451.605C518.359 461.101 525.109 465.623 536.413 465.623C543.588 465.695 550.519 463.026 555.792 458.162C558.142 460.623 560.985 462.559 564.136 463.845C567.286 465.131 570.672 465.737 574.073 465.623C579.398 465.623 584.651 464.4 589.428 462.048C594.205 459.696 598.377 456.278 601.623 452.058C609.756 442.3 614.162 429.974 614.058 417.272C614.157 412.104 613.235 406.968 611.345 402.157H630.111L628.302 410.296C625.994 419.713 624.482 429.307 623.78 438.977C623.78 456.579 631.015 465.623 645.226 465.623C661.375 465.623 673.455 454.771 682.046 433.325C682.422 432.495 682.618 431.595 682.622 430.685C682.626 429.774 682.437 428.873 682.068 428.04C681.699 427.207 681.158 426.462 680.481 425.853C679.804 425.244 679.005 424.786 678.138 424.507ZM518.003 415.916C515.516 428.351 511.544 437.394 506.925 443.272C502.306 449.151 497.01 452.058 491.583 452.058C490.022 452.026 488.495 451.594 487.149 450.802C485.803 450.01 484.683 448.885 483.897 447.536C481.86 443.971 480.843 439.915 480.957 435.812C480.536 427.343 483.008 418.983 487.966 412.105C489.62 409.563 491.806 407.412 494.374 405.799C496.941 404.186 499.828 403.15 502.836 402.763C505.843 402.376 508.898 402.647 511.791 403.557C514.683 404.468 517.343 405.995 519.586 408.035L518.003 415.916ZM596.617 432.872C594.43 437.539 591.698 441.929 588.478 445.953C586.704 447.841 584.569 449.354 582.201 450.402C579.832 451.451 577.277 452.013 574.687 452.058C572.968 452.152 571.253 451.832 569.684 451.123C568.116 450.415 566.741 449.34 565.676 447.988C563.308 444.727 562.165 440.736 562.446 436.716C562.133 428.125 564.578 419.659 569.422 412.557C571.345 409.57 573.989 407.117 577.111 405.423C580.233 403.73 583.731 402.851 587.283 402.867C595.422 402.867 599.492 407.831 599.492 417.757C599.336 422.93 598.309 428.04 596.456 432.872H596.617ZM301.702 353.806C300.058 353.782 298.457 354.333 297.176 355.366C295.896 356.398 295.018 357.846 294.694 359.459L273.7 457.484C273.478 458.522 273.491 459.596 273.739 460.629C273.987 461.661 274.463 462.624 275.132 463.449C275.801 464.273 276.647 464.936 277.606 465.391C278.566 465.845 279.615 466.079 280.676 466.075C282.321 466.1 283.922 465.548 285.202 464.516C286.482 463.483 287.361 462.035 287.685 460.423L308.711 362.398C308.909 361.36 308.878 360.291 308.618 359.266C308.359 358.241 307.879 357.286 307.211 356.467C306.543 355.648 305.703 354.986 304.752 354.526C303.8 354.066 302.759 353.821 301.702 353.806ZM151.483 332.134C137.845 332.185 124.779 337.626 115.136 347.27C105.492 356.914 100.051 369.979 100 383.618C99.9993 389.304 100.915 394.953 102.713 400.348C103.358 402.114 104.655 403.566 106.336 404.406C108.018 405.247 109.957 405.413 111.757 404.87C113.503 404.206 114.931 402.9 115.747 401.22C116.563 399.539 116.707 397.61 116.149 395.826C114.62 391.631 113.939 387.174 114.147 382.713C114.36 375.513 116.663 368.53 120.775 362.615C124.886 356.7 130.629 352.108 137.304 349.399C143.979 346.689 151.297 345.98 158.368 347.356C165.44 348.732 171.958 352.134 177.129 357.149C182.301 362.164 185.903 368.574 187.496 375.599C189.09 382.625 188.606 389.962 186.103 396.717C183.601 403.472 179.188 409.354 173.403 413.645C167.617 417.937 160.709 420.454 153.518 420.89C153.518 420.89 146.316 421.342 142.698 421.794C141.372 421.981 140.056 422.24 138.758 422.569C138.665 422.639 138.549 422.673 138.433 422.665C138.316 422.657 138.207 422.607 138.125 422.524C138.042 422.442 137.992 422.332 137.984 422.216C137.976 422.1 138.01 421.984 138.08 421.891L139.21 415.787L145.993 385.071C146.382 383.242 146.03 381.333 145.012 379.765C143.995 378.196 142.395 377.096 140.567 376.706C138.738 376.316 136.829 376.669 135.26 377.686C133.691 378.704 132.591 380.303 132.201 382.132C132.201 382.132 116.052 457.128 116.052 457.807C115.83 458.711 115.794 459.652 115.948 460.571C116.102 461.49 116.442 462.368 116.947 463.151C117.452 463.934 118.111 464.606 118.885 465.126C119.659 465.645 120.53 466.001 121.446 466.172C122.353 466.389 123.295 466.42 124.214 466.262C125.133 466.104 126.01 465.761 126.793 465.253C127.575 464.746 128.246 464.085 128.765 463.31C129.284 462.535 129.64 461.662 129.811 460.746C130.037 459.841 132.072 449.894 132.072 449.894C132.822 446.232 134.676 442.888 137.384 440.312C140.092 437.737 143.525 436.053 147.22 435.489C148.77 435.262 155.327 434.81 155.327 434.81C168.429 433.599 180.57 427.414 189.252 417.527C197.935 407.64 202.499 394.802 202.007 381.653C201.514 368.504 196.003 356.043 186.606 346.833C177.209 337.622 164.64 332.362 151.483 332.134V332.134Z" fill="#1E1E1E"/>
<path d="M693.123 450.7C692.01 450.474 690.862 450.471 689.747 450.69C688.632 450.909 687.572 451.346 686.626 451.976C685.681 452.607 684.869 453.418 684.238 454.362C683.607 455.307 683.169 456.368 682.949 457.483C682.71 458.597 682.697 459.748 682.91 460.868C683.123 461.988 683.559 463.054 684.191 464.002C684.824 464.951 685.64 465.763 686.591 466.391C687.543 467.018 688.611 467.449 689.732 467.656C690.845 467.91 691.999 467.933 693.122 467.726C694.245 467.518 695.314 467.083 696.263 466.448C697.212 465.814 698.022 464.992 698.643 464.033C699.264 463.075 699.682 462 699.874 460.874C700.254 458.637 699.768 456.34 698.514 454.45C697.259 452.559 695.332 451.218 693.123 450.7Z" fill="#E6007A"/>
</svg>
