<svg width="800" height="800" viewBox="0 0 800 800" fill="none" xmlns="http://www.w3.org/2000/svg">
<rect width="800" height="800" fill="white"/>
<path d="M334.736 375.65C338.417 377.915 341.531 381.03 343.513 385.277C345.779 389.524 346.911 394.621 346.911 400.284C346.911 405.947 345.779 410.76 343.23 415.007C340.965 419.254 337.567 422.369 333.32 424.351C329.073 426.616 323.976 427.749 318.597 427.749C315.482 427.749 312.651 427.182 309.819 426.05C306.988 425.2 304.44 423.502 302.458 421.52V450.967H286.035V373.385H300.192L301.608 379.614C307.837 374.518 314.633 371.969 321.711 371.969C326.525 371.969 331.055 373.102 334.736 375.65ZM325.675 410.76C328.507 408.212 329.923 404.814 329.923 400.567C329.923 396.32 328.507 392.922 325.958 390.091C323.41 387.259 320.012 386.127 316.332 386.127C313.217 386.127 310.386 386.693 308.12 388.109C305.855 389.241 304.156 391.223 302.741 393.771V406.513C303.59 409.061 305.289 411.043 307.271 412.459C309.536 413.875 312.084 414.724 315.199 414.724C319.446 414.724 322.844 413.308 325.675 410.76Z" fill="#0F0F0F"/>
<path d="M356.548 385.554C359.096 381.59 362.494 378.192 367.024 375.927C371.555 373.662 376.651 372.246 382.314 372.246C387.977 372.246 393.074 373.379 397.604 375.927C401.851 378.192 405.249 381.59 407.797 385.837C410.345 390.084 411.478 394.614 411.478 399.994C411.478 405.374 410.345 409.904 407.797 414.151C405.249 418.398 402.134 421.796 397.604 424.061C393.357 426.326 387.977 427.742 382.314 427.742C376.651 427.742 371.555 426.61 367.024 424.344C362.494 422.079 359.096 418.965 356.548 414.718C354.283 410.47 352.867 405.657 352.867 399.994C352.867 394.614 354.283 389.801 356.548 385.554ZM373.254 410.187C375.519 413.019 378.633 414.151 382.314 414.151C385.995 414.151 389.11 412.736 391.375 410.187C393.64 407.639 394.773 403.958 394.773 399.994C394.773 395.747 393.64 392.349 391.375 389.801C388.827 386.969 385.995 385.554 382.031 385.554C378.35 385.554 375.519 386.969 372.97 389.518C370.705 392.349 369.573 395.747 369.573 399.994C369.573 403.958 370.705 407.356 373.254 410.187Z" fill="#0F0F0F"/>
<path d="M438.084 333.176V426.33H421.662V333.176H438.084Z" fill="#0F0F0F"/>
<path d="M505.483 374.79L472.072 451.239H456.215L468.674 423.774L444.89 374.79H463.577L477.168 405.37L490.759 374.79H505.483Z" fill="#0F0F0F"/>
<path d="M568.318 374.794V426.326C568.318 431.14 566.902 435.67 564.071 439.634C561.239 443.598 557.559 446.713 552.745 448.978C547.932 451.243 542.835 452.376 537.172 452.376C532.925 452.376 529.244 451.809 526.13 450.96C523.015 449.827 520.467 448.695 518.485 447.562C516.22 446.147 513.954 444.448 511.406 442.183L521.033 430.857C523.298 433.122 525.846 434.821 528.112 435.953C530.377 437.086 533.491 437.935 536.889 437.935C541.136 437.935 544.534 436.803 547.365 434.821C550.197 432.839 551.613 429.724 551.613 426.043V418.682C549.914 421.23 547.649 423.495 544.251 425.194C540.853 426.893 536.889 427.742 532.359 427.742C527.828 427.742 523.298 426.61 519.334 424.061C515.37 421.796 512.256 418.398 509.707 414.151C507.442 409.904 506.026 405.374 506.026 400.277C506.026 395.181 507.159 390.367 509.707 386.12C512.256 381.873 515.37 378.475 519.617 375.927C523.581 373.379 527.828 372.246 532.359 372.246C536.606 372.246 540.287 372.812 543.685 373.945C547.082 375.077 549.631 376.776 551.329 378.758L553.028 374.794H568.318ZM551.613 406.506V393.765C550.48 391.217 548.781 389.235 546.233 387.819C543.685 386.403 540.853 385.554 537.455 385.554C533.491 385.554 530.094 386.969 527.262 389.518C524.431 392.066 523.015 395.464 523.015 399.711C523.015 403.675 524.431 407.356 527.262 410.187C530.094 413.019 533.491 414.434 537.455 414.434C543.968 414.151 548.781 411.603 551.613 406.506Z" fill="#0F0F0F"/>
<path d="M581.931 385.56C584.479 381.313 587.877 378.199 592.407 375.65C596.938 373.385 602.034 371.969 607.697 371.969C613.36 371.969 618.457 373.102 622.987 375.65C627.234 377.915 630.632 381.313 633.18 385.56C635.445 389.807 636.861 394.338 636.861 399.717C636.861 405.097 635.729 409.628 633.18 413.875C630.915 418.122 627.517 421.52 622.987 423.785C618.74 426.05 613.36 427.466 607.697 427.466C602.034 427.466 596.938 426.333 592.407 424.068C587.877 421.803 584.479 418.688 581.931 414.441C579.383 410.194 578.25 405.38 578.25 399.434C578.25 394.621 579.383 389.807 581.931 385.56ZM598.354 410.194C600.619 413.025 603.733 414.158 607.414 414.158C611.095 414.158 614.21 412.742 616.475 410.194C618.74 407.646 619.872 403.965 619.872 400.001C619.872 395.753 618.74 392.356 616.475 389.807C614.21 387.259 611.095 385.843 607.414 385.843C603.733 385.843 600.902 387.259 598.354 389.807C595.805 392.356 594.673 396.037 594.673 400.001C594.956 403.965 596.088 407.362 598.354 410.194Z" fill="#0F0F0F"/>
<path d="M694.903 376.493C698.301 379.325 699.717 383.005 700 387.536V426.326H683.294V393.765C683.011 388.668 680.463 386.12 675.649 386.12C671.968 386.12 668.854 387.819 666.589 391.5C664.324 395.181 663.191 399.711 663.191 405.091V426.326H646.769V374.794H661.775L662.908 383.005C664.89 379.608 667.438 377.059 670.836 375.077C674.234 373.095 678.198 372.246 682.728 372.246C687.541 372.246 691.789 373.662 694.903 376.493Z" fill="#0F0F0F"/>
<path d="M215.806 373.951C212.975 372.252 209.294 372.252 206.179 373.951L184.094 386.975L169.087 395.47L147.002 408.494C144.171 410.193 140.49 410.193 137.375 408.494L119.82 398.301C116.989 396.602 115.007 393.488 115.007 390.09V369.987C115.007 366.589 116.706 363.474 119.82 361.776L137.092 351.865C139.924 350.167 143.604 350.167 146.719 351.865L163.991 361.776C166.822 363.474 168.804 366.589 168.804 369.987V383.011L183.811 374.234V361.209C183.811 357.812 182.112 354.697 178.998 352.998L147.002 334.311C144.171 332.612 140.49 332.612 137.375 334.311L104.814 352.998C101.699 354.697 100 357.812 100 361.209V398.867C100 402.265 101.699 405.38 104.814 407.079L137.375 425.766C140.207 427.465 143.888 427.465 147.002 425.766L169.087 413.025L184.094 404.247L206.179 391.506C209.011 389.807 212.692 389.807 215.806 391.506L233.078 401.416C235.91 403.115 237.892 406.229 237.892 409.627V429.73C237.892 433.128 236.193 436.242 233.078 437.941L215.806 448.135C212.975 449.833 209.294 449.833 206.179 448.135L188.908 438.224C186.076 436.526 184.094 433.411 184.094 430.013V416.989L169.087 425.766V438.791C169.087 442.189 170.786 445.303 173.901 447.002L206.463 465.689C209.294 467.388 212.975 467.388 216.089 465.689L248.651 447.002C251.482 445.303 253.464 442.189 253.464 438.791V401.133C253.464 397.735 251.766 394.62 248.651 392.921L215.806 373.951Z" fill="#8247E5"/>
</svg>
