<svg width="800" height="800" viewBox="0 0 800 800" fill="none" xmlns="http://www.w3.org/2000/svg">
<rect width="800" height="800" fill="white"/>
<path d="M122.789 304.625C122.789 296.341 129.505 289.625 137.789 289.625H260.113C268.397 289.625 275.113 296.341 275.113 304.625V438.59C275.113 442.986 273.184 447.161 269.838 450.01L208.676 502.094C203.071 506.866 194.831 506.866 189.226 502.093L128.064 450.01C124.717 447.161 122.789 442.986 122.789 438.59V304.625Z" fill="#378BE8"/>
<path fill-rule="evenodd" clip-rule="evenodd" d="M182.886 460.989L146.59 429.453V327.706C146.59 320.476 152.451 314.615 159.68 314.615H236.437C243.666 314.615 249.527 320.476 249.527 327.706V367.571C249.527 371.356 247.909 374.96 245.08 377.475L238.817 383.042L245.525 389.004C248.071 391.267 249.527 394.511 249.527 397.917V429.453L213.231 460.989V403.272C213.231 397.357 208.436 392.562 202.521 392.562H182.886V460.989ZM183.48 331.871V370.547H201.926C208.498 370.547 213.826 365.219 213.826 358.647V331.871H183.48Z" fill="white"/>
<path d="M307.112 454.97H332.981V414.961H335.467L366.242 454.97H399.099L363.084 411.801C370.43 409.246 376.096 405.077 380.083 399.294C384.07 393.467 386.063 386.496 386.063 378.382C386.063 371.12 384.495 364.934 381.36 359.824C378.224 354.669 373.812 350.746 368.123 348.056C362.479 345.367 355.804 344.022 348.1 344.022H307.112V454.97ZM332.981 393.444V364.665H339.768C345.905 364.665 350.608 365.92 353.878 368.431C357.148 370.896 358.783 374.46 358.783 379.122C358.783 383.739 357.148 387.28 353.878 389.746C350.653 392.211 345.949 393.444 339.768 393.444H332.981Z" fill="#0F0F0F"/>
<path d="M430.545 457.121C438.294 457.121 445.282 455.575 451.509 452.482C457.735 449.344 462.663 445.041 466.291 439.572C469.919 434.058 471.733 427.715 471.733 420.542C471.733 413.37 469.919 407.049 466.291 401.58C462.663 396.067 457.735 391.763 451.509 388.67C445.282 385.532 438.294 383.963 430.545 383.963C422.795 383.963 415.807 385.532 409.581 388.67C403.354 391.763 398.427 396.067 394.798 401.58C391.17 407.049 389.356 413.37 389.356 420.542C389.356 427.715 391.17 434.058 394.798 439.572C398.427 445.041 403.354 449.344 409.581 452.482C415.807 455.575 422.795 457.121 430.545 457.121ZM430.545 436.277C426.244 436.277 422.571 434.82 419.525 431.906C416.524 428.947 415.023 425.16 415.023 420.542C415.023 415.88 416.524 412.092 419.525 409.179C422.571 406.265 426.244 404.808 430.545 404.808C434.845 404.808 438.496 406.265 441.497 409.179C444.543 412.092 446.066 415.88 446.066 420.542C446.066 425.16 444.543 428.947 441.497 431.906C438.496 434.82 434.845 436.277 430.545 436.277Z" fill="#0F0F0F"/>
<path d="M478.261 454.97H502.786V415.701C502.786 411.98 503.95 408.954 506.28 406.623C508.654 404.248 511.812 403.06 515.754 403.06C519.651 403.06 522.742 404.27 525.026 406.691C527.311 409.067 528.453 412.317 528.453 416.441V454.97H552.978V411.196C552.978 405.906 551.791 401.222 549.417 397.142C547.088 393.018 543.863 389.791 539.742 387.46C535.665 385.129 531.007 383.963 525.766 383.963C521.376 383.963 517.165 384.793 513.133 386.451C509.147 388.11 505.697 390.329 502.786 393.108V386.115H478.261V454.97Z" fill="#0F0F0F"/>
<path d="M577.015 371.591C580.957 371.591 584.317 370.179 587.094 367.355C589.916 364.531 591.327 361.146 591.327 357.201C591.327 353.256 589.916 349.894 587.094 347.115C584.317 344.291 580.957 342.879 577.015 342.879C573.073 342.879 569.691 344.291 566.869 347.115C564.092 349.894 562.703 353.256 562.703 357.201C562.703 361.146 564.092 364.531 566.869 367.355C569.691 370.179 573.073 371.591 577.015 371.591ZM564.786 454.97H589.312V386.115H564.786V454.97Z" fill="#0F0F0F"/>
<path d="M602.493 454.97H627.018V415.701C627.018 411.98 628.183 408.954 630.512 406.623C632.886 404.248 636.044 403.06 639.986 403.06C643.883 403.06 646.974 404.27 649.259 406.691C651.543 409.067 652.685 412.317 652.685 416.441V454.97H677.211V411.196C677.211 405.906 676.024 401.222 673.65 397.142C671.32 393.018 668.095 389.791 663.974 387.46C659.897 385.129 655.239 383.963 649.998 383.963C645.608 383.963 641.397 384.793 637.366 386.451C633.379 388.11 629.93 390.329 627.018 393.108V386.115H602.493V454.97Z" fill="#0F0F0F"/>
</svg>
