<svg width="250" height="250" viewBox="0 0 250 250" fill="none" xmlns="http://www.w3.org/2000/svg">
<path d="M100.548 97.0845V6.53906C100.548 6.53906 71.2041 21.1269 71.2041 52.1471C71.2041 83.1673 100.548 97.0845 100.548 97.0845Z" fill="#006E3C"/>
<path d="M100.552 6.53906C100.552 6.53906 129.895 21.1269 129.895 52.1471C129.895 83.1673 100.552 97.0845 100.552 97.0845V6.53906Z" fill="#00B43C"/>
<path d="M168.793 139.502L209.035 116.698C209.035 116.698 195.118 107.308 181.368 115.189C167.619 123.07 168.793 139.502 168.793 139.502Z" fill="#006E3C"/>
<path d="M209.035 116.697C209.035 116.697 209.874 133.465 196.124 141.178C182.375 149.059 168.793 139.501 168.793 139.501L209.035 116.697Z" fill="#00B43C"/>
<path d="M211.048 113.008C210.378 112.673 193.442 103.618 179.022 112.002C167.452 118.709 165.273 131.956 164.77 137.489L159.404 140.507C156.721 137.992 153.2 136.315 149.176 136.315C145.151 136.315 141.63 137.824 138.947 140.507L114.802 126.422C115.137 125.248 115.305 124.075 115.305 122.901C115.305 116.194 110.778 110.493 104.741 108.816V100.097C111.784 95.5697 134.252 78.9697 134.252 52.6444C134.252 22.1273 104.071 3.1798 102.729 2.34141L100.549 1L98.3697 2.34141C97.0283 3.1798 66.8465 22.1273 66.8465 52.6444C66.8465 78.9697 89.3151 95.402 96.3576 100.097V108.816C90.1535 110.493 85.7939 116.194 85.7939 122.901C85.7939 124.075 85.9616 125.248 86.297 126.422L61.9838 140.507C59.301 137.992 55.7798 136.315 51.7556 136.315C43.7071 136.315 37 142.855 37 151.071C37 157.778 41.5273 163.479 47.5636 165.156V194.331C41.5273 196.176 37 201.709 37 208.416C37 216.465 43.5394 223.172 51.7556 223.172C56.1151 223.172 59.9717 221.327 62.6545 218.309L86.297 231.891C85.9616 233.065 85.7939 234.238 85.7939 235.412C85.7939 243.461 92.3333 250 100.549 250C108.598 250 115.305 243.461 115.305 235.412C115.305 234.238 115.137 233.065 114.802 231.891L138.444 218.309C141.127 221.327 144.984 223.172 149.343 223.172C157.392 223.172 164.099 216.632 164.099 208.416C164.099 201.709 159.572 196.008 153.535 194.331V165.156C159.572 163.311 164.099 157.778 164.099 151.071C164.099 149.897 163.931 148.723 163.764 147.717L169.129 144.699C172.147 146.208 178.351 148.556 185.226 148.556C189.418 148.556 193.945 147.717 198.305 145.202C212.558 136.986 213.396 117.703 213.396 117.032V114.517L211.048 113.008ZM153.368 156.101C152.194 156.939 150.852 157.442 149.343 157.442C148.505 157.442 147.834 157.275 146.996 156.939C146.325 156.772 145.822 156.436 145.319 155.933C143.978 154.927 143.139 153.418 142.804 151.741C142.804 151.406 142.804 151.071 142.804 150.735C142.804 150.4 142.804 150.232 142.804 149.897C143.139 147.55 144.648 145.537 146.828 144.699C147.499 144.364 148.337 144.196 149.176 144.196C150.014 144.196 151.02 144.364 151.691 144.699C154.038 145.705 155.715 148.053 155.715 150.735C155.715 151.071 155.715 151.406 155.547 151.741C155.38 153.754 154.541 155.095 153.368 156.101ZM155.715 208.416C155.715 212.105 152.697 214.956 149.176 214.956C148.002 214.956 146.661 214.62 145.822 213.949C143.978 212.776 142.636 210.764 142.636 208.416V208.248C142.636 207.578 142.804 206.907 142.972 206.236C143.307 205.063 144.145 204.057 145.151 203.218C145.99 202.547 146.996 202.044 148.002 201.877C148.337 201.877 148.673 201.709 149.176 201.709C150.685 201.709 152.194 202.212 153.2 203.051C154.877 204.392 155.715 206.236 155.715 208.416ZM145.151 194.331C143.139 194.834 141.295 195.84 139.786 197.182L114.97 182.762C115.137 181.756 115.305 180.917 115.305 179.911C115.305 178.57 115.137 177.061 114.634 175.887L139.115 161.634C140.792 163.311 142.804 164.485 145.151 165.156V194.331ZM100.549 241.952C97.1959 241.952 94.5131 239.604 94.0101 236.418C94.0101 236.083 94.0101 235.747 94.0101 235.412C94.0101 232.729 95.6869 230.382 98.0343 229.376C98.8727 229.04 99.7111 228.873 100.549 228.873C101.388 228.873 102.226 229.04 103.065 229.376C105.412 230.382 107.089 232.729 107.089 235.412C107.089 235.747 107.089 236.083 107.089 236.418C106.586 239.436 103.735 241.952 100.549 241.952ZM86.1293 182.762L61.3131 197.182C59.804 195.84 57.9596 194.834 55.9475 194.331V165.156C58.2949 164.485 60.3071 163.311 61.9838 161.634L86.4646 175.719C86.1293 177.061 85.7939 178.402 85.7939 179.911C85.7939 180.917 85.9616 181.923 86.1293 182.762ZM58.4626 208.416C58.4626 210.764 57.2889 212.776 55.2768 213.949C54.2707 214.62 53.097 214.956 51.9232 214.956C48.2343 214.956 45.3838 211.937 45.3838 208.416C45.3838 206.404 46.3899 204.392 47.899 203.218C49.0727 202.38 50.4141 201.877 51.9232 201.877C52.2586 201.877 52.7616 201.877 53.097 202.044C54.2707 202.212 55.1091 202.715 55.9475 203.386C56.9535 204.057 57.6242 205.23 58.1273 206.404C58.2949 207.075 58.4626 207.745 58.4626 208.416C58.4626 208.248 58.4626 208.248 58.4626 208.416ZM45.2162 151.071C45.2162 147.382 48.2343 144.531 51.7556 144.531C52.5939 144.531 53.4323 144.699 54.103 145.034C56.2828 145.873 57.7919 147.885 58.1273 150.232C58.1273 150.568 58.1273 150.903 58.1273 151.238C58.1273 151.574 58.1273 151.909 58.1273 152.244C57.9596 153.921 56.9535 155.43 55.6121 156.436C55.1091 156.772 54.6061 157.107 53.9353 157.442C53.2646 157.778 52.4263 157.945 51.5879 157.945C50.0788 157.945 48.5697 157.442 47.5636 156.604C46.2222 154.927 45.2162 153.083 45.2162 151.071ZM96.5252 117.703C97.699 116.865 99.0404 116.362 100.549 116.362C102.059 116.362 103.568 116.865 104.574 117.703C105.915 118.709 106.754 120.218 106.921 121.895C106.921 122.23 106.921 122.566 106.921 122.901C106.921 124.913 105.915 126.925 104.406 128.099C103.903 128.434 103.4 128.77 102.729 129.105C102.059 129.44 101.22 129.608 100.382 129.608C99.5434 129.608 98.705 129.44 98.0343 129.105C97.3636 128.937 96.8606 128.602 96.3576 128.099C94.8485 126.925 93.8424 125.081 93.8424 122.901C93.8424 122.566 93.8424 122.23 93.8424 121.895C94.3454 120.218 95.1838 118.709 96.5252 117.703ZM107.089 180.079C107.089 182.091 106.083 183.768 104.574 184.941C104.238 185.109 103.903 185.444 103.568 185.612C102.562 186.115 101.556 186.451 100.382 186.451C99.2081 186.451 98.202 186.115 97.3636 185.612C97.0283 185.444 96.6929 185.277 96.3576 184.941C94.8485 183.768 93.8424 181.923 93.8424 179.911V179.743C93.8424 179.073 93.8424 178.57 94.0101 178.067C94.3454 176.725 95.1838 175.552 96.1899 174.545C96.8606 174.042 97.699 173.539 98.705 173.372C99.2081 173.204 99.7111 173.204 100.382 173.204C101.053 173.204 101.556 173.204 102.059 173.372C102.897 173.539 103.735 174.042 104.406 174.545C105.412 175.384 106.25 176.558 106.586 177.899C106.754 178.402 106.754 179.073 106.754 179.743C107.089 179.911 107.089 180.079 107.089 180.079ZM134.923 147.55C134.588 148.723 134.42 149.897 134.42 151.071C134.42 152.244 134.588 153.586 134.923 154.76L110.275 169.012C108.598 167.503 106.754 166.497 104.574 165.826V136.986C106.921 136.315 108.933 135.141 110.61 133.465L134.923 147.55ZM75.0626 52.8121C75.0626 31.1818 94.0101 15.5879 100.549 10.8929C107.089 15.5879 126.036 31.1818 126.036 52.8121C126.036 70.9212 112.622 84 104.574 90.204V55.998C104.574 53.8182 102.729 51.9737 100.549 51.9737C98.202 51.9737 96.5252 53.8182 96.5252 55.998V90.204C88.3091 84 75.0626 70.9212 75.0626 52.8121ZM90.3212 133.465C91.998 135.141 94.1778 136.315 96.3576 136.986V165.826C94.1778 166.497 92.3333 167.503 90.6565 168.844L65.8404 154.592C66.1757 153.418 66.3434 152.244 66.3434 151.071C66.3434 149.897 66.1757 148.723 65.8404 147.55L90.3212 133.465ZM66.3434 210.931C66.5111 210.093 66.5111 209.255 66.5111 208.416C66.5111 206.907 66.3434 205.398 65.8404 203.889L89.9858 189.972C91.6626 191.816 94.0101 193.158 96.5252 193.996V221.327C94.1778 221.998 92.1656 223.172 90.3212 224.848L66.3434 210.931ZM110.778 224.848C109.101 223.172 106.921 221.998 104.574 221.327V193.996C107.089 193.325 109.436 191.816 111.113 189.972L135.259 203.889C134.756 205.23 134.588 206.739 134.588 208.416C134.588 209.255 134.588 210.093 134.756 210.931L110.778 224.848ZM193.945 137.992C188.58 141.01 182.543 140.507 177.848 139.333L185.897 134.638C187.909 133.465 188.58 131.117 187.406 129.105C186.232 127.093 183.885 126.422 181.873 127.596L173.824 132.291C174.998 127.764 177.681 122.23 183.046 119.044C190.76 114.517 200.317 117.368 204.677 119.212C204.006 123.739 201.826 133.465 193.945 137.992Z" fill="black"/>
</svg>
