<svg width="800" height="800" viewBox="0 0 800 800" fill="none" xmlns="http://www.w3.org/2000/svg">
<rect width="800" height="800" fill="white"/>
<path d="M357.556 392.315L380.612 357.556H399.651L371.53 400L401.048 442.444H381.311L357.556 407.685V392.315Z" fill="#231F20"/>
<path d="M524.364 357.556H540.782V427.073H580.956V442.444H524.364V357.556Z" fill="#231F20"/>
<path d="M604.885 357.556V442.444H662.001V427.073H621.304V372.752H662.001V357.556H604.885Z" fill="#231F20"/>
<path d="M348.648 357.556H332.229V442.444H348.648V357.556Z" fill="#231F20"/>
<path d="M645.408 392.315H629.688V407.511H645.408V392.315Z" fill="#231F20"/>
<path d="M137.999 328.736V471.264H266.554V456.068H155.116V343.932H266.554V328.736H137.999Z" fill="#231F20"/>
<path d="M472.836 419.039H442.793L436.156 442.27H419.039L445.937 357.382H470.041L497.115 442.27H479.473L472.836 419.039ZM447.16 404.018H468.12L459.387 372.054H456.243L447.16 404.018Z" fill="#231F20"/>
<path d="M265.506 444.017C290.658 444.017 299.741 429.695 299.741 417.293C299.741 403.669 292.056 395.285 276.685 392.49L260.79 389.521C255.55 388.822 249.786 386.901 249.786 380.613C249.786 373.277 257.122 370.657 264.109 370.657C273.192 370.657 278.257 373.801 279.829 380.438H296.947C294.851 365.242 282.973 355.985 264.284 355.985C242.276 355.81 232.32 368.561 232.32 381.312C232.32 394.062 239.83 401.922 253.978 404.368L270.222 407.162C275.986 408.21 282.1 410.306 282.1 418.166C282.1 424.979 275.986 429.171 266.205 429.171C255.026 429.171 248.389 424.979 246.992 416.769H229.874C231.97 433.887 244.721 444.017 265.506 444.017Z" fill="#231F20"/>
</svg>
