<svg width="800" height="800" viewBox="0 0 800 800" fill="none" xmlns="http://www.w3.org/2000/svg">
<rect width="800" height="800" fill="white"/>
<path fill-rule="evenodd" clip-rule="evenodd" d="M275 414.976C275 423.462 270.149 428.333 260.605 428.333H237.78V418.276H257.901C260.844 418.276 262.275 417.255 262.275 414.662C262.275 412.541 260.685 411.205 257.185 408.769L245.256 399.655C239.212 395.097 236.667 390.854 236.667 385.826C236.667 377.262 241.757 373.333 251.777 373.333H274.046V383.39H254.004C250.902 383.39 249.391 384.412 249.391 387.083C249.391 389.126 250.982 390.462 254.561 392.819L266.411 400.99C272.455 405.076 275 410.026 275 414.976Z" fill="#28286E"/>
<path fill-rule="evenodd" clip-rule="evenodd" d="M321.667 383.391H307.244V428.333H294.423V383.391H280V373.333H321.667V383.391Z" fill="#28286E"/>
<path fill-rule="evenodd" clip-rule="evenodd" d="M356.06 408.533L348.411 386.769L340.684 408.533H356.06ZM359.339 417.726H337.328L333.581 428.333H320L341.777 373.333H354.89L376.667 428.333H363.086L359.339 417.726Z" fill="#28286E"/>
<path fill-rule="evenodd" clip-rule="evenodd" d="M398.289 399.262C405.286 399.262 407.354 396.826 407.354 391.012C407.354 385.197 405.286 382.762 398.289 382.762H392.722V399.262H398.289ZM421.667 428.333H408.865L406.4 417.805C404.809 410.498 403.378 408.533 397.812 408.454H392.722V428.333H380V373.333H402.821C414.669 373.333 420.076 378.519 420.076 389.833C420.076 397.455 417.055 402.09 410.932 403.976C415.306 406.019 417.452 410.105 419.202 417.805L421.667 428.333Z" fill="#28286E"/>
<path fill-rule="evenodd" clip-rule="evenodd" d="M442.393 399.969L462.145 373.333H476.939L456.181 399.969L478.333 428.333H463.539L442.393 399.969ZM430 428.333H442.393V373.333H430V428.333Z" fill="#28286E"/>
<path fill-rule="evenodd" clip-rule="evenodd" d="M560 373.333L543.368 428.333H535.596L522.461 384.333L509.326 428.333H501.477L485 373.333H492.617L505.596 419.769L519.353 373.333H525.57L539.327 419.769L552.384 373.333H560Z" fill="#28286E"/>
<path fill-rule="evenodd" clip-rule="evenodd" d="M592.952 408.769L582.539 381.19L572.048 408.769H592.952ZM594.924 414.033H570.076L564.633 428.333H556.667L578.674 373.333H586.326L608.333 428.333H600.366L594.924 414.033Z" fill="#28286E"/>
<path fill-rule="evenodd" clip-rule="evenodd" d="M632.258 400.283C641.006 400.283 644.267 396.905 644.267 389.519C644.267 382.29 641.006 378.833 632.258 378.833H622.316V400.283H632.258ZM653.333 428.333H645.937L643.949 418.905C641.96 409.083 639.495 405.783 632.019 405.626H622.316V428.333H615V373.333H634.723C646.415 373.333 651.584 378.44 651.584 388.89C651.584 396.747 648.323 401.54 641.483 403.112C646.891 405.155 649.357 409.79 651.266 418.905L653.333 428.333Z" fill="#28286E"/>
<path d="M672.269 379.147V395.883H696.761V401.305H672.269V413.091C672.269 419.612 675.113 422.519 681.591 422.519H700V428.333H680.485C668.95 428.333 665 424.562 665 413.719V373.333H700V379.147H672.269Z" fill="white"/>
<path d="M672.269 379.147V395.883H696.761V401.305H672.269V413.091C672.269 419.612 675.113 422.519 681.591 422.519H700V428.333H680.485C668.95 428.333 665 424.562 665 413.719V373.333H700V379.147H672.269Z" fill="#28286E"/>
<path fill-rule="evenodd" clip-rule="evenodd" d="M153.255 407.054L143.83 416.774C143.824 416.779 143.818 416.785 143.811 416.79C143.788 416.805 143.76 416.814 143.731 416.814C143.649 416.814 143.582 416.745 143.582 416.661C143.582 416.644 143.585 416.627 143.59 416.612C143.59 416.611 143.589 416.613 143.589 416.613L147.176 402.818C147.481 401.829 147.254 400.704 146.493 399.92L137.068 390.199C137.063 390.193 137.057 390.187 137.052 390.18C137.038 390.156 137.029 390.128 137.029 390.097C137.029 390.013 137.095 389.944 137.177 389.944C137.194 389.944 137.21 389.947 137.225 389.952C137.225 389.952 137.224 389.951 137.224 389.951L150.601 393.65C151.559 393.965 152.651 393.731 153.411 392.946L162.837 383.227C162.843 383.221 162.849 383.215 162.856 383.21C162.879 383.195 162.906 383.186 162.936 383.186C163.018 383.186 163.085 383.255 163.085 383.339C163.085 383.356 163.082 383.373 163.077 383.388L163.077 383.387L159.491 397.182C159.186 398.17 159.413 399.296 160.173 400.08L169.599 409.801C169.604 409.807 169.61 409.813 169.614 409.82C169.629 409.844 169.638 409.872 169.638 409.903C169.638 409.987 169.571 410.056 169.49 410.056C169.473 410.056 169.457 410.053 169.442 410.048C169.442 410.048 169.443 410.048 169.443 410.048L156.066 406.35C155.108 406.035 154.016 406.269 153.255 407.054ZM206.26 398.987L183.747 375.77C182.986 374.986 181.895 374.752 180.936 375.067L166.131 379.161C166.13 379.161 166.129 379.158 166.126 379.16C166.112 379.164 166.098 379.167 166.082 379.167C166 379.167 165.934 379.098 165.934 379.013C165.934 378.959 165.961 378.912 166.002 378.885C166.002 378.884 166 378.885 166 378.885C167.616 377.776 170.067 375.77 175.925 369.73C176.467 369.17 176.467 368.263 175.925 367.704L154.316 345.42C153.773 344.86 152.894 344.86 152.351 345.42L129.838 368.636C129.077 369.421 128.85 370.547 129.156 371.535L133.126 386.802C133.125 386.804 133.124 386.804 133.124 386.808C133.129 386.822 133.131 386.837 133.131 386.853C133.131 386.938 133.065 387.006 132.983 387.006C132.93 387.006 132.884 386.978 132.858 386.935C132.857 386.935 132.858 386.937 132.858 386.937C131.783 385.27 129.838 382.744 123.981 376.703C123.438 376.143 122.558 376.143 122.016 376.703L100.407 398.987C99.8644 399.547 99.8644 400.454 100.407 401.013L122.92 424.23C123.681 425.014 124.772 425.248 125.731 424.933L140.536 420.839C140.537 420.839 140.537 420.842 140.541 420.84C140.554 420.836 140.569 420.833 140.585 420.833C140.667 420.833 140.733 420.902 140.733 420.987C140.733 421.041 140.706 421.088 140.665 421.116C140.665 421.116 140.666 421.115 140.666 421.116C139.05 422.224 136.6 424.23 130.742 430.27C130.2 430.83 130.2 431.737 130.742 432.296L152.351 454.58C152.894 455.14 153.773 455.14 154.316 454.58L176.829 431.364C177.589 430.579 177.817 429.453 177.511 428.465L173.541 413.198C173.541 413.196 173.543 413.196 173.542 413.193C173.538 413.178 173.536 413.163 173.536 413.147C173.536 413.062 173.602 412.994 173.684 412.994C173.737 412.994 173.783 413.022 173.809 413.065V413.063C174.884 414.73 176.829 417.257 182.686 423.297C183.229 423.857 184.108 423.857 184.651 423.297L206.26 401.013C206.802 400.454 206.802 399.547 206.26 398.987Z" fill="#28286E"/>
</svg>
