<svg width="16" height="16" viewBox="0 0 16 16" fill="none" xmlns="http://www.w3.org/2000/svg">
<path d="M7 2.42857L7 13.5714C7 13.8081 7.19897 14 7.44444 14L8.55556 14C8.80103 14 9 13.8081 9 13.5714L9 2.42857C9 2.19187 8.80103 2 8.55556 2L7.44444 2C7.19897 2 7 2.19187 7 2.42857Z" fill="#FF4C8B"/>
<path d="M13.5714 7L2.42857 7C2.19187 7 2 7.19897 2 7.44444L2 8.55556C2 8.80103 2.19187 9 2.42857 9L13.5714 9C13.8081 9 14 8.80103 14 8.55556L14 7.44444C14 7.19897 13.8081 7 13.5714 7Z" fill="#FF4C8B"/>
</svg>
