<svg width="89" height="90" viewBox="0 0 89 90" fill="none" xmlns="http://www.w3.org/2000/svg">
<path d="M43.7807 89.1986C55.6859 89.1986 65.3114 78.9715 65.3114 66.3222C65.3114 57.3062 60.752 50.1742 52.6463 46.5409V27.2978H55.1793C55.9392 27.2978 56.4459 26.7595 56.4459 25.9521C56.4459 25.1447 55.9392 24.6064 55.1793 24.6064H32.3821C31.6222 24.6064 31.1156 25.1447 31.1156 25.9521C31.1156 26.7595 31.6222 27.2978 32.3821 27.2978H34.9151V46.5409C26.8094 50.0396 22.25 57.3062 22.25 66.3222C22.25 78.9715 31.8755 89.1986 43.7807 89.1986ZM36.6883 48.6939C37.1949 48.5594 37.4482 48.0211 37.4482 47.4828V27.2978H50.1133V47.4828C50.1133 48.0211 50.4932 48.5594 50.8732 48.6939C56.1926 50.847 59.8654 54.6149 61.6386 59.4593C58.4723 61.3432 55.4326 62.1506 52.6463 62.1506C49.1001 62.1506 46.0604 60.805 42.7675 59.4593C39.6012 58.1136 36.1816 56.768 32.3821 56.768H32.2555C30.609 56.768 28.4559 57.1717 26.3028 57.9791C28.3293 53.9421 31.8755 50.7125 36.6883 48.6939ZM25.2896 61.4778C27.696 60.2667 30.3557 59.5939 32.3821 59.5939C35.675 59.5939 38.7147 60.805 41.881 62.1506C45.1739 63.4963 48.5935 64.9766 52.6463 64.9766C55.6859 64.9766 58.9789 64.0346 62.2718 62.1506C62.5251 63.4963 62.6518 64.842 62.6518 66.3222C62.6518 77.4913 54.1661 86.5073 43.6541 86.5073C33.142 86.5073 24.6564 77.4913 24.6564 66.3222C24.783 64.5728 25.0363 62.958 25.2896 61.4778Z" fill="#FF4C8B"/>
<path d="M42.5005 85.6103C43.2695 85.6103 43.7821 84.9951 43.7821 84.0724C43.7821 83.1497 43.2695 82.5345 42.5005 82.5345C35.5799 82.5345 28.403 73.9222 28.403 65.6175C28.403 64.6948 27.8904 64.0796 27.1214 64.0796C26.3525 64.0796 25.8398 64.6948 25.8398 65.6175C25.8398 75.7677 34.042 85.6103 42.5005 85.6103Z" fill="#FF4C8B"/>
<path d="M47.4425 12.1585C44.5829 11.3923 41.6163 13.105 40.8501 15.9646C40.0838 18.8242 41.7966 21.7908 44.6562 22.5571C47.5158 23.3233 50.4824 21.6105 51.2486 18.7509C52.0148 15.8913 50.3021 12.9247 47.4425 12.1585ZM45.3528 19.9574C43.923 19.5743 43.0666 18.091 43.4497 16.6612C43.8328 15.2314 45.3161 14.375 46.7459 14.7582C48.1757 15.1413 49.0321 16.6246 48.649 18.0544C48.2659 19.4842 46.7826 20.3405 45.3528 19.9574Z" fill="#FF4C8B"/>
<path d="M37.5275 1.59215C34.2593 0.716464 30.869 2.6739 29.9933 5.94201C29.1176 9.21013 31.075 12.6005 34.3431 13.4762C37.6112 14.3519 41.0016 12.3944 41.8773 9.12634C42.753 5.85822 40.7956 2.46784 37.5275 1.59215ZM35.1392 10.5052C33.5052 10.0673 32.5264 8.37215 32.9643 6.7381C33.4021 5.10404 35.0973 4.12532 36.7314 4.56316C38.3654 5.00101 39.3441 6.6962 38.9063 8.33026C38.4685 9.96431 36.7733 10.943 35.1392 10.5052Z" fill="#FF4C8B"/>
</svg>
