<svg width="16" height="16" viewBox="0 0 16 16" fill="none" xmlns="http://www.w3.org/2000/svg">
<path d="M1.94979 3.5429L12.4554 14.0485C12.6785 14.2717 13.0177 14.2943 13.213 14.099L14.0969 13.2151C14.2921 13.0198 14.2695 12.6807 14.0464 12.4575L3.54078 1.95191C3.31761 1.72874 2.97844 1.70613 2.78317 1.9014L1.89928 2.78529C1.70401 2.98056 1.72662 3.31974 1.94979 3.5429Z" fill="#FF4C8B"/>
<path d="M12.4581 1.95174L1.95249 12.4573C1.72932 12.6805 1.70671 13.0197 1.90198 13.2149L2.78586 14.0988C2.98114 14.2941 3.32031 14.2715 3.54348 14.0483L14.0491 3.54273C14.2722 3.31956 14.2948 2.98039 14.0996 2.78512L13.2157 1.90123C13.0204 1.70596 12.6812 1.72857 12.4581 1.95174Z" fill="#FF4C8B"/>
</svg>
