<svg width="89" height="89" viewBox="0 0 89 89" fill="none" xmlns="http://www.w3.org/2000/svg">
<path d="M26.741 31.7437C26.741 32.6749 26.2888 33.5362 25.553 34.0065L11.7318 42.8396C9.70204 44.1368 9.6899 47.3368 11.7098 48.6524L25.557 57.6713C26.2912 58.1495 26.741 59.0144 26.741 59.9482C26.741 62.0283 24.648 63.2981 23.0314 62.1987L4.23829 49.4188C3.33212 48.8025 2.78125 47.7191 2.78125 46.5531V45.0667C2.78125 43.8955 3.33708 42.8079 4.24982 42.1933L23.0815 29.5121C24.6805 28.4353 26.741 29.6918 26.741 31.7437Z" fill="#FF4C8B"/>
<path d="M37.3359 72.1071C36.3626 71.626 35.8738 70.4245 36.1992 69.313L51.1358 18.2946C51.5249 16.9655 52.8958 16.314 54.0513 16.9089C55.0114 17.4033 55.4871 18.5984 55.1634 19.7025L40.2074 70.7141C39.8238 72.0226 38.4819 72.6736 37.3359 72.1071Z" fill="#FF4C8B"/>
<path d="M77.2902 48.6524C79.3101 47.3368 79.298 44.1368 77.2682 42.8396L63.447 34.0065C62.7112 33.5362 62.259 32.6749 62.259 31.7437C62.259 29.6918 64.3195 28.4353 65.9185 29.5121L84.7502 42.1933C85.6629 42.8079 86.2188 43.8955 86.2188 45.0667V46.5531C86.2188 47.7191 85.6679 48.8025 84.7617 49.4188L65.9686 62.1987C64.352 63.2981 62.259 62.0283 62.259 59.9482C62.259 59.0144 62.7088 58.1495 63.443 57.6713L77.2902 48.6524Z" fill="#FF4C8B"/>
</svg>
