<svg width="32" height="32" viewBox="0 0 32 32" fill="none" xmlns="http://www.w3.org/2000/svg">
<path fill-rule="evenodd" clip-rule="evenodd" d="M20.0838 1.93906C13.2933 0.576154 7.27727 5.35402 6.59209 11.7277L20.0838 1.93906ZM6.59209 11.7277C6.5118 12.469 6.31159 13.177 5.96806 13.8072L3.06393 19.1316C2.97912 19.2871 2.96491 19.4715 3.0249 19.6381C3.08489 19.8048 3.21334 19.9378 3.3778 20.0036L5.93614 21.0267V24.736C5.93614 25.4037 6.47732 25.9449 7.14504 25.9449H11.2426V30.0424C11.2426 30.3846 11.52 30.662 11.8621 30.662C12.2043 30.662 12.4817 30.3846 12.4817 30.0424V25.9147C12.4817 25.247 11.9406 24.7058 11.2728 24.7058H7.17528V21.0071C7.17528 20.5115 6.87419 20.0683 6.4164 19.8842L4.486 19.1122L7.05591 14.4005C7.48948 13.6052 7.72934 12.7356 7.82406 11.8609C8.43344 6.19109 13.7842 1.93844 19.8401 3.154C21.9633 3.5796 23.866 4.66089 25.2941 6.27998C27.0588 8.28171 27.754 10.6374 27.7589 12.942C27.7626 14.6767 27.4063 16.352 26.6732 17.7953C25.3666 20.367 24.8098 23.2357 24.8098 26.0832V30.0437C24.8098 30.3859 25.0872 30.6633 25.4293 30.6633C25.7715 30.6633 26.0489 30.3859 26.0489 30.0437V26.0832C26.0489 23.3928 26.5754 20.7234 27.778 18.3566C28.6121 16.7144 29.0021 14.8409 28.9981 12.9394C28.9926 10.3802 28.2158 7.72028 26.2234 5.46042C24.6123 3.63371 22.4667 2.41676 20.0838 1.93906" fill="#FF4C8B"/>
<path fill-rule="evenodd" clip-rule="evenodd" d="M17.4156 12.7748C16.4552 12.7748 15.6766 13.5534 15.6766 14.5138C15.6766 15.4742 16.4552 16.2527 17.4156 16.2527C18.3761 16.2527 19.1546 15.4742 19.1546 14.5138C19.1546 13.5534 18.3761 12.7748 17.4156 12.7748ZM14.4375 14.5138C14.4375 12.869 15.7709 11.5356 17.4156 11.5356C19.0604 11.5356 20.3938 12.869 20.3938 14.5138C20.3938 16.1585 19.0604 17.4919 17.4156 17.4919C15.7709 17.4919 14.4375 16.1585 14.4375 14.5138Z" fill="#FF4C8B"/>
<path fill-rule="evenodd" clip-rule="evenodd" d="M17.4164 5.63721C17.7586 5.63721 18.036 5.9146 18.036 6.25678V10.3846C18.036 10.7268 17.7586 11.0041 17.4164 11.0041C17.0743 11.0041 16.7969 10.7268 16.7969 10.3846V6.25678C16.7969 5.9146 17.0743 5.63721 17.4164 5.63721Z" fill="#FF4C8B"/>
<path fill-rule="evenodd" clip-rule="evenodd" d="M17.4164 18.022C17.7586 18.022 18.036 18.2994 18.036 18.6415V22.7693C18.036 23.1115 17.7586 23.3889 17.4164 23.3889C17.0743 23.3889 16.7969 23.1115 16.7969 22.7693V18.6415C16.7969 18.2994 17.0743 18.022 17.4164 18.022Z" fill="#FF4C8B"/>
<path fill-rule="evenodd" clip-rule="evenodd" d="M8.53906 14.5136C8.53906 14.1714 8.81645 13.894 9.15863 13.894H13.2877C13.6299 13.894 13.9073 14.1714 13.9073 14.5136C13.9073 14.8558 13.6299 15.1332 13.2877 15.1332H9.15863C8.81645 15.1332 8.53906 14.8558 8.53906 14.5136Z" fill="#FF4C8B"/>
<path fill-rule="evenodd" clip-rule="evenodd" d="M20.9219 14.5136C20.9219 14.1714 21.1993 13.894 21.5414 13.894H25.6705C26.0127 13.894 26.2901 14.1714 26.2901 14.5136C26.2901 14.8558 26.0127 15.1332 25.6705 15.1332H21.5414C21.1993 15.1332 20.9219 14.8558 20.9219 14.5136Z" fill="#FF4C8B"/>
<path fill-rule="evenodd" clip-rule="evenodd" d="M14.9039 17.0232C15.1459 17.2651 15.146 17.6574 14.9041 17.8994L11.9562 20.8485C11.7143 21.0905 11.322 21.0906 11.08 20.8487C10.838 20.6068 10.8379 20.2145 11.0798 19.9725L14.0277 17.0234C14.2696 16.7813 14.6619 16.7813 14.9039 17.0232Z" fill="#FF4C8B"/>
<path fill-rule="evenodd" clip-rule="evenodd" d="M23.7516 8.17698C23.9936 8.41889 23.9937 8.81117 23.7518 9.05318L20.8039 12.0023C20.562 12.2443 20.1697 12.2444 19.9277 12.0025C19.6856 11.7606 19.6856 11.3683 19.9275 11.1263L22.8754 8.17717C23.1173 7.93516 23.5096 7.93507 23.7516 8.17698Z" fill="#FF4C8B"/>
<path fill-rule="evenodd" clip-rule="evenodd" d="M19.9277 17.0232C20.1697 16.7813 20.562 16.7813 20.8039 17.0234L23.7518 19.9725C23.9937 20.2145 23.9936 20.6068 23.7516 20.8487C23.5096 21.0906 23.1173 21.0905 22.8754 20.8485L19.9275 17.8994C19.6856 17.6574 19.6856 17.2651 19.9277 17.0232Z" fill="#FF4C8B"/>
<path fill-rule="evenodd" clip-rule="evenodd" d="M11.08 8.17698C11.322 7.93507 11.7143 7.93516 11.9562 8.17717L14.9041 11.1263C15.146 11.3683 15.1459 11.7606 14.9039 12.0025C14.6619 12.2444 14.2696 12.2443 14.0277 12.0023L11.0798 9.05318C10.8379 8.81117 10.838 8.41889 11.08 8.17698Z" fill="#FF4C8B"/>
</svg>
