<svg width="89" height="89" viewBox="0 0 89 89" fill="none" xmlns="http://www.w3.org/2000/svg">
<path d="M41.7648 14.563C32.6469 14.563 25.2539 21.9559 25.2539 31.0739C25.2539 40.1919 32.6469 47.5849 41.7648 47.5849C50.8828 47.5849 58.2758 40.1919 58.2758 31.0739H41.7648V14.563Z" stroke="#FF4C8B" stroke-width="3" stroke-miterlimit="10" stroke-linecap="round" stroke-linejoin="round"/>
<path d="M48.8633 7.51514V24.0261H65.3249C65.3249 14.9081 57.9813 7.51514 48.8633 7.51514Z" stroke="#FF4C8B" stroke-width="3" stroke-miterlimit="10" stroke-linecap="round" stroke-linejoin="round"/>
<path d="M27.621 72.938H61.3473C63.4615 72.938 65.2065 74.683 65.2065 76.7972V80.1531C65.2065 80.4215 64.9716 80.6564 64.7031 80.6564H24.2651C23.9966 80.6564 23.7617 80.4215 23.7617 80.1531V76.7972C23.7617 74.683 25.5068 72.938 27.621 72.938Z" stroke="#FF4C8B" stroke-width="3" stroke-miterlimit="10" stroke-linecap="round" stroke-linejoin="round"/>
<path d="M54.1656 72.9382L52.3535 62.8706H36.6481L34.8359 72.9382H54.1656Z" stroke="#FF4C8B" stroke-width="3" stroke-miterlimit="10" stroke-linecap="round" stroke-linejoin="round"/>
<path d="M71.7834 15.7207H79.1663C80.408 15.7207 81.4147 16.7274 81.4147 17.9691V60.622C81.4147 61.8637 80.408 62.8705 79.1663 62.8705H9.83436C8.5927 62.8705 7.58594 61.8637 7.58594 60.622V17.9691C7.58594 16.7274 8.5927 15.7207 9.83436 15.7207H17.2172" stroke="#FF4C8B" stroke-width="3" stroke-miterlimit="10" stroke-linecap="round" stroke-linejoin="round"/>
<path d="M7.58594 54.2124H81.4147" stroke="#FF4C8B" stroke-width="3" stroke-miterlimit="10" stroke-linecap="round" stroke-linejoin="round"/>
</svg>
